<?xml version="1.0" encoding="UTF-8" standalone="no"?>
<svg xmlns:rdf="http://www.w3.org/1999/02/22-rdf-syntax-ns#" xmlns="http://www.w3.org/2000/svg" xmlns:osb="http://www.openswatchbook.org/uri/2009/osb" height="257" width="300" version="1.1" xmlns:cc="http://creativecommons.org/ns#" xmlns:dc="http://purl.org/dc/elements/1.1/">
<g>
<path d="m148.33 12.258 0.51148 40.469c-9.63 20.744-28.69 52.563-42.42 64.383l-1.7483-2.1627-94.623-0.18548c-4.868-0.20751-10.071 5.3933-9.7759 9.2334l9.3111 121.26c0.30545 3.9767 4.5318 8.9513 8.9513 8.9513h84.269c3.2981 0 7.8184-3.2778 7.9567-7.3238l0.36167-10.579c2.7359 3.8853 10.141 9.6746 16.546 9.6746h113.56c14.218 0 36.136-15.146 28.934-40.688 8.1431-6.5167 12.963-17.586 8.1376-31.646 8.5394-6.9789 14.75-20.099 7.595-31.827 22.756-19.069 7.9891-45.751-9.5842-45.751h-76.493c2.8615-12.513 7.3524-25.297 7.0526-42.134-0.259-14.542-9.9185-35.735-16.818-47.017-2.8778-4.706-29.438-13.775-41.729 5.3523z" stroke="#485c90" stroke-width="1px" fill="#455c91"/>
<path d="m11.173 126.46h79.702l0.18622 117.13h-70.95z" fill="#6e7fb3"/>
<path fill="#6475ab" d="m19.739 142.29h63.128v94.227h-55.121z"/>
<path d="m186.76 107.06c3.6492-14.671 6.3114-30.989 8.0765-46.628 0.43389-3.8444 0.41496-7.166-0.16743-10.353-2.31-12.611-7.58-23.868-12.54-35.205-4.9-3.861-14.51-5.398-21.71 0.458v39.79c-12.083 23.669-25.711 46.455-42.539 67.413l-15.862 11.074v92.111l10.986 0.0437s14.565 8.9068 15.33 8.5245c1.2746 0.63727 113.56 0.31676 113.56 0.31676 6.087 0.12629 28.046-15.915 14.059-28.435-1.8638-1.1433-1.619-4.5809 0.12745-5.7242 8.7423-1.5693 19.338-18.015 8.2696-26.677-1.885-2.1007-0.53346-5.3948 1.6969-5.6405 6.5385-3.1573 17.736-13.726 7.5704-26.487-2.0512-1.0446-2.1397-3.7377-0.23305-5.3637 9.833-1.3714 22.289-23.773 1.6713-29.156z" fill="#edf5f7"/>
</g>
<g fill="#dce4e7">
<path d="m110.12 225.75v-97.838l-8.1274 5.5142 0.0374 92.315z"/>
<path d="m171.04 11.4 9.4316 40.653-24.981 44.354c-2.5888 4.5964 0.54072 9.2562 4.2697 9.4316l27.084 1.2746c4.1353-18.694 9.1255-41.492 8.1083-55.57-1.8504-9.8169-5.8315-22.234-12.827-36.818-3.9067-2.6502-7.1526-3.3248-11.086-3.3248z"/>
<path d="m240.38 106.99c8.8762 8.4377 3.5466 24.337-4.2577 29.961-1.4802 0.8539-1.7992 2.956-0.72099 4.326 8.6023 9.8342-2.8358 26.413-6.4889 28.119-1.1843 1.0644-1.3324 2.3014-1.0815 3.605 9.7973 13.73-1.5232 25.16-5.4074 27.758-1.2849 1.1521-1.6831 3.1472-0.72099 5.047 8.5461 13.453-1.3503 22.979-6.9946 28.9l27.887 0.0591c5.3623 0.26876 27.867-16.083 12.952-28.926-1.675-1.4424-0.59452-5.1696 0.5507-5.3751 7.3836-1.325 20.415-16.926 8.2185-26.823-0.85187-0.69124-1.5777-4.12 1.6758-5.558 10.077-4.454 16.3-15.166 7.6837-26.545-2.2917-1.291-2.0053-4.0908-0.20557-5.2003 16.835-5.015 17.222-27.325 1.5922-29.28z"/>
</g>
<g>
<path d="m80.037 237.48a13.829 13.829 0 1 1 -0.000038 -0.002" transform="matrix(.59807 0 0 .59807 30.31 82.599)" fill="#fff"/>
<g>
<path d="m69.384 223.01a1.0498 1.0498 0 1 1 -0.000003 -0.00011" transform="translate(-.24219 .048828)"/>
<path d="m69.384 223.01a1.0498 1.0498 0 1 1 -0.000003 -0.00011" transform="translate(3.3467 .048828)"/>
<path d="m69.384 223.01a1.0498 1.0498 0 1 1 -0.000003 -0.00011" transform="translate(3.3467 3.6865)"/>
<path d="m69.384 223.01a1.0498 1.0498 0 1 1 -0.000003 -0.00011" transform="translate(-.24219 3.6865)"/>
</g>
</g>
</svg>
