<?xml version="1.0" encoding="UTF-8" standalone="no"?>
<svg xmlns:rdf="http://www.w3.org/1999/02/22-rdf-syntax-ns#" xmlns="http://www.w3.org/2000/svg" height="12.908mm" width="37.053mm" version="1.1" xmlns:cc="http://creativecommons.org/ns#" xmlns:dc="http://purl.org/dc/elements/1.1/" viewBox="0 0 131.28951 45.737849">
<g transform="translate(1348.5 127.65)">
<g fill="#333">
<path d="m-1320.3-116.46h-3.9581l-1.1239 2.6387c-1.6614-1.9546-4.1535-3.0785-6.7922-3.0785-7.3787 0-13.633 7.1343-13.633 15.539 0 5.4729 3.2251 9.0889 8.0627 9.0889 3.7626 0 7.4764-2.3944 9.6753-6.2059l-0.9284 5.1797c-1.0262 5.6684-4.8865 9.5776-9.4799 9.5776-1.1239 0-2.1989-0.34206-3.0785-0.92844-0.6841-0.43979-0.8307-0.63525-1.6125-2.1501-0.5375-1.075-1.3194-1.5637-2.541-1.5637-1.5148 0-2.7853 1.075-2.7853 2.3944 0 2.1501 4.2512 4.0558 9.0889 4.0558 3.9092 0 7.7696-1.2705 10.555-3.4694 2.6387-2.0523 3.6649-4.0558 4.5933-9.3821l3.9581-21.696zm-5.424 4.6911c-1.3683 7.2809-1.8569 8.9912-3.4695 11.825-1.8568 3.2251-4.8376 5.3752-7.5741 5.3752-2.6876 0-4.3001-2.1012-4.3001-5.5218s1.2705-7.6718 3.1762-10.506c1.7103-2.541 4.1047-4.007 6.4991-4.007 2.1989 0 4.1047 0.87958 5.3752 2.4921 0.1466 0.19546 0.1466 0.19546 0.2932 0.34206z"/>
<path d="m-1306.5-96.913c-1.466 1.5148-2.4922 2.1012-3.4695 2.1012-1.5637 0-2.5898-1.1728-2.5898-2.883 0-0.48865 0.049-0.83071 0.098-1.2705l3.1762-17.494h-1.8568c-2.7854 0.63524-3.5183 0.78184-6.8412 1.075l-0.2443 1.4171 0.5864 0.0977c2.0523 0.34206 2.8342 1.0262 2.8342 2.4433 0 0.53752 0 0.78185-0.098 1.2216l-2.0523 11.239c-0.098 0.53752-0.1466 1.1728-0.1466 1.7103 0 3.0785 1.808 4.9843 4.6911 4.9843 2.4921 0 4.7888-1.1728 7.0366-3.616l-1.1239-1.0262zm-2.932-28.342c-1.7591 0-3.4694 1.7103-3.4694 3.4694 0 1.466 1.0262 2.541 2.3944 2.541 1.9057 0 3.616-1.7103 3.616-3.6649 0-1.3682-1.075-2.3455-2.541-2.3455z"/>
<path d="m-1280.4-116.46h-4.4956l-0.4398 2.4921c-1.6614-1.8569-4.2513-2.9319-7.0855-2.9319-7.5741 0-14.073 7.232-14.073 15.588 0 5.424 3.3717 9.0401 8.4049 9.0401 3.8114 0 6.89-1.8569 9.8707-5.9127-0.049 0.34206-0.049 0.63525-0.049 0.78184 0 1.1239 0.5863 2.7365 1.3193 3.6649 0.733 0.87957 2.0524 1.466 3.3717 1.466 2.541 0 5.6684-1.6614 7.1343-3.8115l-1.075-1.0262c-0.9773 1.1728-2.3455 1.9057-3.5183 1.9057-1.4171 0-2.5898-1.1728-2.5898-2.6387 0-0.58638 0.098-1.4171 0.342-2.6876l2.8831-15.93zm-5.3263 4.5445c-1.2705 6.89-2.199 9.7242-3.9581 12.509-1.808 2.883-4.8866 4.8377-7.5253 4.8377-2.7364 0-4.5444-2.2478-4.5444-5.5218 0-3.1274 1.1239-7.0855 2.6875-9.5776 2.0524-3.2251 4.74-4.9354 7.7208-4.9354 2.2966 0 3.8603 0.73298 5.6195 2.6876z"/>
<path d="m-1248-96.962c-1.7103 1.6614-2.541 2.1501-3.8115 2.1501-1.6126 0-2.6387-1.0262-2.6387-2.5899 0-0.83071 0-0.83071 0.5375-3.3717l4.8865-26.876h-2.0035c-2.1989 0.87957-3.8115 1.2705-7.1832 1.6126l-0.2931 1.4171 0.7818 0.0977c2.3455 0.2932 3.0785 0.87958 3.0785 2.4921 0 0.29319-0.049 0.73298-0.098 1.1239l-1.2705 7.0366c-2.2967-2.1501-4.4468-3.0296-7.4764-3.0296-7.6718 0-14.171 7.0855-14.171 15.441 0 5.5218 3.3717 9.1867 8.4537 9.1867 1.8568 0 4.0069-0.63525 5.7172-1.6614 1.8569-1.1239 2.883-2.1989 4.6911-4.7399-0.1955 1.2216-0.2444 1.5637-0.2444 2.0035 0 2.4433 2.1501 4.3979 4.7888 4.3979 2.7365 0 5.1797-1.2216 7.3787-3.6649l-1.1239-1.0262zm-8.8446-12.705c-1.0262 5.1797-1.8569 7.5741-3.4695 10.017-2.1012 3.1274-4.7399 4.8377-7.6229 4.8377-3.0297 0-4.7888-2.0523-4.7888-5.4729 0-3.9581 1.3682-8.0139 3.7137-11.044 1.6614-2.1012 4.007-3.274 6.5968-3.274 2.4433 0 4.1536 0.83071 5.9616 2.883l-0.3909 2.0523z"/>
<path d="m-1221.2-116.46h-4.4956l-0.4398 2.4921c-1.6614-1.8569-4.2513-2.9319-7.0854-2.9319-7.5741 0-14.073 7.232-14.073 15.588 0 5.424 3.3717 9.0401 8.4048 9.0401 3.8115 0 6.89-1.8569 9.8708-5.9127-0.049 0.34206-0.049 0.63525-0.049 0.78184 0 1.1239 0.5864 2.7365 1.3194 3.6649 0.7329 0.87957 2.0523 1.466 3.3717 1.466 2.541 0 5.6683-1.6614 7.1343-3.8115l-1.075-1.0262c-0.9774 1.1728-2.3456 1.9057-3.5183 1.9057-1.4171 0-2.5899-1.1728-2.5899-2.6387 0-0.58638 0.098-1.4171 0.3421-2.6876l2.883-15.93zm-5.3263 4.5445c-1.2705 6.89-2.1989 9.7242-3.9581 12.509-1.808 2.883-4.8865 4.8377-7.5252 4.8377-2.7365 0-4.5445-2.2478-4.5445-5.5218 0-3.1274 1.1239-7.0855 2.6876-9.5776 2.0523-3.2251 4.7399-4.9354 7.7207-4.9354 2.2967 0 3.8603 0.73298 5.6195 2.6876z"/>
</g>
</g>
</svg>
