<?xml version="1.0" encoding="UTF-8" standalone="no"?>
<svg xmlns:rdf="http://www.w3.org/1999/02/22-rdf-syntax-ns#" xmlns="http://www.w3.org/2000/svg" version="1.1" xml:space="preserve" height="68.221" width="50" enable-background="new 0 0 48 48" xmlns:cc="http://creativecommons.org/ns#" xmlns:dc="http://purl.org/dc/elements/1.1/" viewBox="0 0 49.999999 68.221214"><g transform="matrix(2.1875 0 0 2.1875 -66.22 119.06)" fill="#ff3e2e"><g fill="#ff3e2e"><g transform="matrix(.64980 0 0 .64980 24.883 -54.431)"><path d="m42.468 48.001c-0.298 0-0.593-0.133-0.79-0.386l-5.446-7.002-0.21-0.614v-9.116c0-2.43-1.28-3.49-4.085-5.813-0.485-0.402-1.007-0.834-1.564-1.31-0.42-0.358-0.47-0.99-0.112-1.41s0.99-0.471 1.41-0.112c0.549 0.468 1.063 0.895 1.542 1.291 2.896 2.398 4.809 3.983 4.809 7.354v8.773l5.236 6.731c0.339 0.436 0.26 1.064-0.176 1.403-0.183 0.142-0.399 0.211-0.614 0.211z"/><path d="m31.165 47.999c-0.312 0-0.619-0.146-0.814-0.418l-1.025-1.435c-0.854-1.195-1.304-2.603-1.304-4.07v-2.764l-4.276-6.176c-1.147-1.221-1.125-3.149 0.068-4.343 1.218-1.218 3.198-1.217 4.415 0l5.5 5.5c0.391 0.391 0.391 1.023 0 1.414s-1.023 0.391-1.414 0l-5.5-5.5c-0.438-0.437-1.148-0.437-1.586 0-0.437 0.437-0.437 1.148 0 1.585l0.115 0.138 4.5 6.5 0.178 0.569v3.077c0 1.049 0.322 2.054 0.932 2.908l1.025 1.434c0.321 0.449 0.217 1.074-0.232 1.395-0.178 0.125-0.381 0.186-0.582 0.186z"/><path d="m29.021 43.999h-15c-2.206 0-4-1.794-4-4v-22c0-2.206 1.794-4 4-4h14c2.206 0 4 1.794 4 4v15h-2v-15c0-1.103-0.897-2-2-2h-14c-1.103 0-2 0.897-2 2v22c0 1.103 0.897 2 2 2h15v2z"/><path d="m26.678 12.342c-1.511-1.511-3.52-2.343-5.657-2.343s-4.146 0.832-5.657 2.343l-1.414-1.414c1.889-1.889 4.4-2.929 7.071-2.929s5.182 1.04 7.071 2.929l-1.414 1.414z"/><path d="m29.506 9.514c-4.679-4.679-12.292-4.679-16.971 0l-1.413-1.414c5.458-5.459 14.341-5.459 19.799 0l-1.415 1.414z"/><path d="m32.335 6.685c-6.238-6.238-16.39-6.238-22.628 0l-1.414-1.414c7.019-7.019 18.438-7.019 25.456 0l-1.414 1.414z"/><path d="m17.021 19.999c-0.552 0-1 0.448-1 1s0.448 1 1 1 1-0.448 1-1-0.448-1-1-1z"/><path d="m21.021 19.999c-0.552 0-1 0.448-1 1s0.448 1 1 1 1-0.448 1-1-0.448-1-1-1z"/><path d="m25.021 19.999c-0.552 0-1 0.448-1 1s0.448 1 1 1 1-0.448 1-1-0.448-1-1-1z"/><path d="m17.021 23.999c-0.552 0-1 0.448-1 1s0.448 1 1 1 1-0.448 1-1-0.448-1-1-1z"/><path d="m21.021 23.999c-0.552 0-1 0.448-1 1s0.448 1 1 1 1-0.448 1-1-0.448-1-1-1z"/><path d="m17.021 27.999c-0.552 0-1 0.448-1 1s0.448 1 1 1 1-0.448 1-1-0.448-1-1-1z"/><path d="m21.021 27.999c-0.552 0-1 0.448-1 1s0.448 1 1 1 1-0.448 1-1-0.448-1-1-1z"/><path d="m17.021 31.999c-0.552 0-1 0.448-1 1s0.448 1 1 1 1-0.448 1-1-0.448-1-1-1z"/><path d="m21.021 31.999c-0.552 0-1 0.448-1 1s0.448 1 1 1 1-0.448 1-1-0.448-1-1-1z"/><path d="m17.021 35.999c-0.552 0-1 0.448-1 1s0.448 1 1 1 1-0.448 1-1-0.448-1-1-1z"/><path d="m21.021 35.999c-0.552 0-1 0.448-1 1s0.448 1 1 1 1-0.448 1-1-0.448-1-1-1z"/><path d="m25.021 23.999c-0.552 0-1 0.448-1 1s0.448 1 1 1 1-0.448 1-1-0.448-1-1-1z"/></g></g></g></svg>
