<?xml version="1.0" encoding="UTF-8" standalone="no"?>
<svg xmlns:rdf="http://www.w3.org/1999/02/22-rdf-syntax-ns#" xmlns="http://www.w3.org/2000/svg" version="1.1" xml:space="preserve" height="71.998" width="72" enable-background="new 0 0 48 48" xmlns:cc="http://creativecommons.org/ns#" xmlns:dc="http://purl.org/dc/elements/1.1/" viewBox="0 0 71.999999 71.997863"><g transform="matrix(2.1875 0 0 2.1875 62.377 120.95)" fill="#ff3e2e"><g fill="#ff3e2e"><g fill="#ff3e2e" transform="matrix(.68569 0 0 .68569 -28.515 -55.29)"><g fill="#ff3e2e"><path d="m37 48h-37v-44h29c0.552 0 1 0.448 1 1s-0.448 1-1 1h-27v40h33v-22c0-0.552 0.448-1 1-1s1 0.448 1 1v24z" fill="#ff3e2e"/><path d="m22 17" fill="#ff3e2e"/><path d="m21.637 27.363c-0.26 0-0.516-0.101-0.708-0.293-0.304-0.304-0.38-0.769-0.188-1.154l2.828-5.657c0.048-0.096 0.111-0.184 0.188-0.26l19.093-19.092c0.593-0.594 1.316-0.907 2.089-0.907 1.213 0 2.354 0.784 2.837 1.95 0.461 1.114 0.206 2.31-0.683 3.199l-19.092 19.092c-0.076 0.076-0.164 0.139-0.26 0.188l-5.657 2.829c-0.142 0.071-0.295 0.105-0.447 0.105zm3.65-6.065-1.414 2.829 2.829-1.415l18.977-18.977c0.315-0.315 0.399-0.658 0.25-1.02-0.17-0.407-0.595-0.715-0.99-0.715-0.235 0-0.462 0.108-0.675 0.321l-18.977 18.977z" fill="#ff3e2e"/><path d="m43.557 8.271c-0.256 0-0.512-0.098-0.708-0.293l-2.828-2.829c-0.39-0.391-0.39-1.024 0-1.415 0.391-0.39 1.024-0.39 1.415 0l2.828 2.829c0.39 0.391 0.39 1.024 0 1.415-0.195 0.196-0.451 0.293-0.707 0.293z" fill="#ff3e2e"/></g></g></g></g></svg>
