<?xml version="1.0" encoding="UTF-8"?>
<!-- Created with Inkscape (http://www.inkscape.org/) -->
<svg width="21.034mm" height="21.034mm" version="1.1" viewBox="0 0 21.034 21.034" xmlns="http://www.w3.org/2000/svg" xmlns:cc="http://creativecommons.org/ns#" xmlns:dc="http://purl.org/dc/elements/1.1/" xmlns:rdf="http://www.w3.org/1999/02/22-rdf-syntax-ns#">
 <metadata>
  <rdf:RDF>
   <cc:Work rdf:about="">
    <dc:format>image/svg+xml</dc:format>
    <dc:type rdf:resource="http://purl.org/dc/dcmitype/StillImage"/>
    <dc:title/>
   </cc:Work>
  </rdf:RDF>
 </metadata>
 <g transform="translate(-12.18 -128.06)">
  <g transform="matrix(.26458 0 0 .26458 38.506 -219.3)">
   <g transform="translate(3.3434 341.21)">
    <path transform="translate(-7.3434 -541.21)" d="m-55.75 1512.9a39.75 39.75 0 0 0-39.75 39.75 39.75 39.75 0 0 0 39.75 39.75 39.75 39.75 0 0 0 39.75-39.75 39.75 39.75 0 0 0-39.75-39.75zm0 17.373c0.51124 0 1.0223 0.1961 1.4141 0.5879l20.375 20.375c0.78348 0.7834 0.78348 2.0466 0 2.83l-20.375 20.375c-0.78347 0.7835-2.0446 0.7835-2.8281 0l-20.375-20.375c-0.78348-0.7834-0.78348-2.0466 0-2.83l20.375-20.375c0.39174-0.3918 0.90282-0.5879 1.4141-0.5879z" fill="#ff3e2e"/>
   </g>
  </g>
 </g>
</svg>
