<?xml version="1.0" encoding="UTF-8" standalone="no"?>
<svg xmlns:rdf="http://www.w3.org/1999/02/22-rdf-syntax-ns#" xmlns="http://www.w3.org/2000/svg" version="1.1" xml:space="preserve" height="66" width="60" enable-background="new 0 0 48 48" xmlns:cc="http://creativecommons.org/ns#" xmlns:dc="http://purl.org/dc/elements/1.1/" viewBox="0 0 59.999999 65.999999"><g transform="matrix(2.1875 0 0 2.1875 -299.41 117.95)" fill="#ff3e2e"><g fill="#ff3e2e"><g transform="matrix(.68571 0 0 .68571 134.13 -55.291)" fill="#ff3e2e"><g fill="#ff3e2e"><path d="m24 20c-11.215 0-20-3.953-20-9s8.785-9 20-9 20 3.953 20 9-8.785 9-20 9zm0-16c-8.514 0-18 2.875-18 7s9.486 7 18 7 18-2.875 18-7-9.486-7-18-7z" fill="#ff3e2e"/><path d="m24 28c-11.215 0-20-3.953-20-9v-8c0-0.553 0.447-1 1-1s1 0.447 1 1v8c0 4.125 9.486 7 18 7s18-2.875 18-7v-8c0-0.553 0.447-1 1-1s1 0.447 1 1v8c0 5.047-8.785 9-20 9z" fill="#ff3e2e"/><path d="m24 37c-11.215 0-20-3.953-20-9v-9c0-0.553 0.447-1 1-1s1 0.447 1 1v9c0 4.125 9.486 7 18 7s18-2.875 18-7v-9c0-0.553 0.447-1 1-1s1 0.447 1 1v9c0 5.047-8.785 9-20 9z" fill="#ff3e2e"/><path d="m24 46c-11.215 0-20-3.953-20-9v-9c0-0.553 0.447-1 1-1s1 0.447 1 1v9c0 4.125 9.486 7 18 7s18-2.875 18-7v-9c0-0.553 0.447-1 1-1s1 0.447 1 1v9c0 5.047-8.785 9-20 9z" fill="#ff3e2e"/></g></g></g></g></svg>
