<?xml version="1.0" encoding="UTF-8"?>
<!-- Created with Inkscape (http://www.inkscape.org/) -->
<svg width="21.034mm" height="21.034mm" version="1.1" viewBox="0 0 21.034 21.034" xmlns="http://www.w3.org/2000/svg" xmlns:cc="http://creativecommons.org/ns#" xmlns:dc="http://purl.org/dc/elements/1.1/" xmlns:rdf="http://www.w3.org/1999/02/22-rdf-syntax-ns#">
 <metadata>
  <rdf:RDF>
   <cc:Work rdf:about="">
    <dc:format>image/svg+xml</dc:format>
    <dc:type rdf:resource="http://purl.org/dc/dcmitype/StillImage"/>
    <dc:title/>
   </cc:Work>
  </rdf:RDF>
 </metadata>
 <g transform="translate(-48.428 -127.8)">
  <g transform="matrix(.26458 0 0 .26458 119.02 -94.833)">
   <path d="m-218.43 881.19a8.625 8.625 0 0 1-8.625 8.625 8.625 8.625 0 0 1-8.625-8.625 8.625 8.625 0 0 1 8.625-8.625 8.625 8.625 0 0 1 8.625 8.625zm-8.625-39.751a39.75 39.75 0 0 0-39.75 39.75 39.75 39.75 0 0 0 39.75 39.75 39.75 39.75 0 0 0 39.75-39.75 39.75 39.75 0 0 0-39.75-39.75zm0 17.25a22.5 22.5 0 0 1 22.5 22.5 22.5 22.5 0 0 1-22.5 22.5 22.5 22.5 0 0 1-22.5-22.5 22.5 22.5 0 0 1 22.5-22.5z" fill="#ff3e2e"/>
  </g>
 </g>
</svg>
