<?xml version="1.0" encoding="UTF-8"?>
<!-- Created with Inkscape (http://www.inkscape.org/) -->
<svg width="21.034mm" height="21.034mm" version="1.1" viewBox="0 0 21.034 21.034" xmlns="http://www.w3.org/2000/svg" xmlns:cc="http://creativecommons.org/ns#" xmlns:dc="http://purl.org/dc/elements/1.1/" xmlns:rdf="http://www.w3.org/1999/02/22-rdf-syntax-ns#">
 <metadata>
  <rdf:RDF>
   <cc:Work rdf:about="">
    <dc:format>image/svg+xml</dc:format>
    <dc:type rdf:resource="http://purl.org/dc/dcmitype/StillImage"/>
    <dc:title/>
   </cc:Work>
  </rdf:RDF>
 </metadata>
 <g transform="translate(60.316 -128.06)">
  <path d="m-49.798 128.06a10.517 10.517 0 0 0-10.517 10.517 10.517 10.517 0 0 0 10.517 10.517 10.517 10.517 0 0 0 10.517-10.517 10.517 10.517 0 0 0-10.517-10.517zm0 4.5641a5.9531 5.9531 0 0 1 5.9531 5.9531 5.9531 5.9531 0 0 1-5.9531 5.9531 5.9531 5.9531 0 0 1-5.9531-5.9531 5.9531 5.9531 0 0 1 5.9531-5.9531z" fill="#ff3e2e"/>
 </g>
</svg>
