<?xml version="1.0" encoding="UTF-8" standalone="no"?>
<svg xmlns:rdf="http://www.w3.org/1999/02/22-rdf-syntax-ns#" xmlns="http://www.w3.org/2000/svg" height="100" width="84.233" version="1.1" xmlns:cc="http://creativecommons.org/ns#" xmlns:dc="http://purl.org/dc/elements/1.1/" viewBox="0 0 84.232582 100.00278">
<path fill="#646464" d="m82.468 77.933c-1.5124 3.4939-3.3025 6.7099-5.3765 9.6665-2.8272 4.0309-5.142 6.821-6.9259 8.3704-2.7654 2.5432-5.7284 3.8457-8.9017 3.9198-2.2778 0-5.0247-0.64815-8.2223-1.963-3.2081-1.3086-6.1562-1.9568-8.852-1.9568-2.8272 0-5.8593 0.64815-9.1021 1.9568-3.2482 1.3148-5.8648 2-7.8654 2.0679-3.0426 0.12963-6.0753-1.2099-9.1021-4.0247-1.9321-1.6852-4.3487-4.5741-7.2438-8.6667-3.108-4.366-5.6616-9.433-7.6623-15.211-2.142-6.241-3.2161-12.283-3.2161-18.134 0-6.7019 1.4481-12.482 4.3487-17.326 2.2797-3.8908 5.3124-6.9599 9.108-9.2133 3.7957-2.2531 7.8969-3.4012 12.314-3.4747 2.4167 0 5.5858 0.74754 9.5241 2.2167 3.9272 1.4741 6.4488 2.2216 7.5544 2.2216 0.82655 0 3.6278-0.87408 8.3766-2.6167 4.4908-1.6161 8.2809-2.2852 11.386-2.0216 8.4136 0.67901 14.735 3.9957 18.938 9.9714-7.5247 4.5592-11.247 10.945-11.173 19.137 0.0679 6.3808 2.3828 11.691 6.9322 15.906 2.0618 1.9568 4.3642 3.4692 6.9259 4.5432-0.55555 1.6111-1.1419 3.1543-1.7654 4.6358zm-19.296-75.932c0 5.0013-1.8272 9.6707-5.4691 13.994-4.3951 5.1383-9.7111 8.1074-15.476 7.6389-0.07346-0.6-0.11605-1.2315-0.11605-1.8951 0-4.8012 2.0901-9.9394 5.8018-14.141 1.852-2.1277 4.209-3.8964 7.067-5.3074 2.852-1.3898 5.549-2.1585 8.086-2.2901 0.07407 0.66859 0.10494 1.3372 0.10494 2.0006z"/>
</svg>
