<?xml version="1.0" encoding="UTF-8" standalone="no"?>
<svg xmlns:rdf="http://www.w3.org/1999/02/22-rdf-syntax-ns#" xmlns="http://www.w3.org/2000/svg" xml:space="preserve" height="100" width="85.163" version="1.1" y="0px" x="0px" xmlns:cc="http://creativecommons.org/ns#" xmlns:dc="http://purl.org/dc/elements/1.1/" viewBox="0 0 85.163107 100.00194"><g transform="matrix(.19806 0 0 .19806 -7.4236 -.045518)"><path fill="#646464" d="m456.51 412.09c-13.346-5.4765-24.342-14.101-23.544-30.617 0.77665-16.495-11.794-27.426-11.794-27.426s10.996-36.115 0.77665-65.933c-10.2-29.86-43.94-77.71-69.84-113.8-25.85-36.12-3.9-77.729-27.42-131.07-23.57-53.343-84.76-50.216-117.73-27.448-32.99 22.726-22.79 79.215-21.23 105.95 1.5743 26.649 0.71168 45.644-2.329 52.544-3.1046 6.8999-24.321 32.213-38.465 53.385-14.123 21.173-24.321 65.136-34.562 83.183-10.198 18.047-3.1266 34.52-3.1266 34.52s-7.0718 2.329-12.57 14.166c-5.4985 11.729-16.473 17.227-36.093 21.109-19.62 3.9242-19.62 16.538-14.92 30.66 4.7219 14.101 0.02199 21.992-5.4765 39.996s21.971 23.544 48.642 26.628c26.693 3.1696 56.512 20.44 81.652 23.566 25.076 3.1476 32.945-17.249 32.945-17.249s28.245-6.3172 58.043-7.0508c29.841-0.79764 58.043 6.2742 58.043 6.2742s5.4985 12.548 15.697 18.025c10.22 5.4985 32.191 6.2962 46.313-8.5811 14.144-14.942 51.812-33.743 72.984-45.537 21.234-11.815 17.353-29.84 4.0072-35.295zm-183.66-346.08c13.454 0 24.321 13.346 24.321 29.798 0 11.686-5.4546 21.755-13.411 26.649-2.0271-0.8836-4.1611-1.7892-6.4251-2.7598 4.7868-2.3719 8.1933-8.4732 8.1933-15.589 0-9.2708-5.7354-16.796-12.829-16.796-7.0068 0-12.764 7.5466-12.764 16.796 0 3.4285 0.81963 6.727 2.221 9.4218-4.1831-1.6602-8.0424-3.2126-11.061-4.355-1.6383-4.0102-2.5658-8.5382-2.5658-13.368 0-16.451 10.867-29.797 24.321-29.797zm-1.74 62.831c6.727 2.329 14.209 6.706 13.433 11.039-0.79764 4.355-4.334 4.355-13.433 9.9185-9.1199 5.5195-28.87 17.766-35.188 18.564-6.3601 0.79764-9.8966-2.7598-16.624-7.0938-6.727-4.355-19.383-14.683-16.193-20.181 0 0 9.8536-7.5466 14.188-11.492 4.355-3.9672 15.438-13.433 22.165-12.204 6.727 1.1425 24.925 9.0769 31.652 11.449zm-60.66-58.107c10.608 0 19.232 12.634 19.232 28.223 0 2.8677-0.27988 5.5195-0.81963 8.0854-2.5868 0.8836-5.2177 2.307-7.7615 4.463-1.2934 1.0565-2.4369 2.0481-3.5364 3.0396 1.6822-3.1476 2.3499-7.6326 1.5953-12.354-1.4234-8.5162-7.0938-14.726-12.721-13.842-5.6055 0.97056-8.991 8.6241-7.5676 17.184 1.4444 8.5602 7.0938 14.769 12.699 13.842 0.32386-0.065 0.62572-0.15094 0.94858-0.25889-2.7378 2.6308-5.2606 4.8948-7.8265 6.8129-7.7615-3.6004-13.454-14.317-13.454-26.995 0.001-15.587 8.6031-28.2 19.211-28.2zm-20.72 396.53c-2.5009 11.255-15.675 19.426-15.675 19.426-11.945 3.7513-45.149-10.651-60.199-16.968-15.028-6.2312-53.299-8.1713-58.323-13.735-4.9808-5.6924 2.5009-18.219 4.42-30.099 1.8542-11.967-3.7513-19.448-1.8971-27.62 1.8971-8.1284 26.347-8.1284 35.727-13.756 9.4218-5.6704 11.298-21.971 18.823-26.347 7.5246-4.42 21.302 11.255 26.951 20.073 5.6275 8.7321 26.951 46.378 35.727 55.779 8.797 9.4008 16.947 21.992 14.447 33.247zm138.79-109.36c-2.264 11.061-2.264 51.035-2.264 51.035s-24.321 33.7-62.031 39.219c-37.667 5.5195-56.512 1.5523-56.512 1.5523l-21.173-24.299s16.451-2.3929 14.123-18.866c-2.3719-16.473-50.215-39.241-58.862-59.659-8.6031-20.375-1.5523-54.937 9.4438-72.209 10.975-17.249 18.004-54.894 29-67.487 10.996-12.505 19.599-39.198 15.675-50.992 0 0 23.544 28.266 39.996 23.587 16.473-4.7219 53.407-32.213 58.862-27.469 5.4765 4.7219 52.566 108.28 57.244 141.25 4.7219 32.945-3.1476 58.043-3.1476 58.043s-18.026-4.6999-20.354 6.2962zm120.44 73.933c-7.3307 6.727-48.124 23.2-60.35 36.05-12.161 12.742-28.051 23.114-37.775 20.095-9.7886-3.0836-18.306-16.473-14.037-36.007 4.2471-19.469 7.9344-40.815 7.3307-53.019-0.60373-12.204-3.0836-28.698 0-31.134 3.0406-2.3719 7.8915-1.1855 7.8915-1.1855s-2.3929 23.135 11.6 29.28c13.993 6.0373 34.132-2.4369 40.233-8.5811 6.1232-6.0583 10.392-15.2 10.392-15.2s6.0803 3.0836 5.4765 12.807c-0.60373 9.7456 4.2471 23.803 13.433 28.655 9.1209 4.8078 23.136 11.556 15.805 18.24z"/></g></svg>
