<?xml version="1.0" encoding="UTF-8" standalone="no"?>
<!-- Created with Inkscape (http://www.inkscape.org/) -->
<svg xmlns:rdf="http://www.w3.org/1999/02/22-rdf-syntax-ns#" xmlns="http://www.w3.org/2000/svg" height="8.1598mm" width="119.96mm" version="1.1" xmlns:cc="http://creativecommons.org/ns#" xmlns:dc="http://purl.org/dc/elements/1.1/" viewBox="0 0 119.96568 8.1597034">
 <metadata>
  <rdf:RDF>
   <cc:Work rdf:about="">
    <dc:format>image/svg+xml</dc:format>
    <dc:type rdf:resource="http://purl.org/dc/dcmitype/StillImage"/>
    <dc:title/>
   </cc:Work>
  </rdf:RDF>
 </metadata>
 <g aria-label="monocasual laboratories" fill="#464646" stroke-width=".26459">
  <path d="m0.084668 7.6708q0.30692 0 0.43392-0.14817 0.13758-0.1587 0.15875-0.3915 0.03175-0.2435 0.03175-0.7515v-2.413q0-0.4445 0.042334-0.68792l-0.75142 0.0423v-0.4445q0.62442 0 0.85726-0.063501 0.23284-0.0741 0.39154-0.2222h0.30692q0.021167 0.15875 0.042334 0.56092 0.32809-0.28575 0.74084-0.45509t0.81493-0.16934q0.51859 0 0.87843 0.1905 0.37042 0.17992 0.57151 0.51859 0.381-0.30692 0.84668-0.50801 0.47626-0.20109 0.91018-0.20109 0.93134 0 1.3547 0.57151 0.43392 0.56092 0.41275 1.7992l-0.010584 1.9685q0 0.47626-0.042334 0.71967l0.66676-0.03175v0.4339h-2.1591v-0.3175q0.30692 0 0.43392-0.14817 0.13758-0.15875 0.15875-0.39159 0.03175-0.24342 0.03175-0.75142v-1.4816q0-0.91018-0.28575-1.3547-0.28575-0.45509-0.89959-0.45509-0.32809 0-0.66676 0.14817-0.3281 0.1375-0.5821 0.3704 0.1059 0.3281 0.1059 0.7726l-0.021167 2.4871q0 0.47626-0.042334 0.71967l0.66676-0.03175v0.4339h-2.1591v-0.3175q0.30692 0 0.43392-0.14817 0.1376-0.1587 0.1588-0.381 0.0211-0.2328 0.0317-0.762l0.0106-1.4816q0.0106-0.9208-0.2646-1.3759-0.2751-0.4551-0.8784-0.4551-0.32809 0-0.65617 0.13758-0.3175 0.13758-0.55034 0.37042l0.010583 0.57151v2.7199q0 0.47626-0.042334 0.71967l0.66676-0.03175v0.4339h-2.1591z"/>
  <path d="m12.177 8.1577q-0.73026 0-1.3441-0.33867-0.604-0.3493-0.9636-0.9631-0.3493-0.6139-0.3493-1.3864 0-0.82551 0.34925-1.4923 0.34925-0.67734 0.95251-1.0583 0.61384-0.39159 1.3547-0.39159 0.73026 0 1.3441 0.35984 0.61384 0.34925 0.96309 0.96309 0.35984 0.61384 0.35984 1.3653 0 0.80434-0.35984 1.4817-0.34925 0.67734-0.96309 1.0689-0.60326 0.39159-1.3441 0.39159zm0.08467-0.42334q0.77259 0 1.1324-0.63501 0.37042-0.63501 0.37042-1.5769 0-1.0689-0.40217-1.8309-0.39159-0.76201-1.1853-0.76201-0.78318 0-1.1853 0.64559-0.39159 0.64559-0.39159 1.5875 0 0.67734 0.17992 1.27 0.1905 0.58209 0.56092 0.94193 0.381 0.35984 0.92076 0.35984z"/>
  <path d="m15.753 7.6708q0.30692 0 0.43392-0.14817 0.13758-0.15875 0.15875-0.381 0.02117-0.23284 0.03175-0.76201l0.01058-2.413q0-0.4445 0.04233-0.68792l-0.751 0.0423v-0.4445q0.62442 0 0.85726-0.063501 0.23284-0.074084 0.39159-0.22225h0.30692q0.02117 0.20109 0.04233 0.64559 0.35984-0.3175 0.81492-0.50801 0.46567-0.20109 0.91018-0.20109 0.92076 0 1.3441 0.58209 0.42334 0.57151 0.42334 1.7886v1.9685q0 0.47626-0.04233 0.71967l0.66676-0.03175v0.4339h-2.16v-0.3175q0.30692 0 0.43392-0.14817 0.13758-0.15875 0.15875-0.39159 0.03175-0.24342 0.03175-0.75142v-1.4816q-0.01-0.9102-0.296-1.3653-0.286-0.4657-0.899-0.4657-0.381 0-0.76201 0.1905-0.37042 0.1905-0.61384 0.49742 0.01058 0.11642 0.01058 0.41275l-0.01058 2.6988q0 0.47626-0.04233 0.71967l0.66676-0.03175v0.43392h-2.159z"/>
  <path d="m24.806 8.1577q-0.73026 0-1.3441-0.33867-0.603-0.3493-0.963-0.9631-0.349-0.6139-0.349-1.3864 0-0.82551 0.34925-1.4923 0.34925-0.67734 0.95251-1.0583 0.61384-0.39159 1.3547-0.39159 0.73026 0 1.3441 0.35984 0.61384 0.34925 0.96309 0.96309 0.35984 0.61384 0.35984 1.3653 0 0.80434-0.35984 1.4817-0.34925 0.67734-0.96309 1.0689-0.60326 0.39159-1.3441 0.39159zm0.08467-0.42334q0.77259 0 1.1324-0.63501 0.37042-0.63501 0.37042-1.5769 0-1.0689-0.40217-1.8309-0.39159-0.76201-1.1853-0.76201-0.78317 0-1.1853 0.64559-0.39159 0.64559-0.39159 1.5875 0 0.67734 0.17992 1.27 0.1905 0.58209 0.56092 0.94193 0.381 0.35984 0.92076 0.35984z"/>
  <path d="m30.965 8.1577q-0.71967 0-1.3229-0.32809-0.592-0.3281-0.942-0.942-0.349-0.6138-0.349-1.4499 0-0.74084 0.34925-1.4076 0.35984-0.67734 0.98426-1.0901 0.63501-0.41275 1.4288-0.41275 0.57151 0 1.016 0.17992 0.4445 0.17992 0.68792 0.47626 0.254 0.29634 0.254 0.64559 0 0.24342-0.13758 0.40217t-0.381 0.15875q-0.23284 0-0.34925-0.14817-0.11642-0.15875-0.11642-0.32809 0-0.26459 0.15875-0.42334-0.11642-0.32809-0.45509-0.4445-0.32809-0.127-0.65617-0.127-0.48684 0-0.87843 0.26459-0.381 0.26459-0.60326 0.77259-0.22225 0.50801-0.22225 1.2171t0.22225 1.2594q0.23284 0.55034 0.64559 0.86784 0.41276 0.30692 0.95251 0.30692 0.47626 0 0.93134-0.254 0.46567-0.26459 0.73026-0.65617l0.27517 0.21167q-0.39159 0.61384-1.016 0.93134-0.61384 0.3175-1.2065 0.3175z"/>
  <path d="m35.466 8.1577q-0.77259 0-1.1853-0.34925-0.40217-0.34925-0.40217-0.91018 0-0.61384 0.48684-1.0372 0.49742-0.42334 1.2383-0.62442 0.75142-0.21167 1.5028-0.20109v-0.6562q0-0.68792-0.20109-1.0689-0.20108-0.39159-0.85726-0.39159-0.32809 0-0.62442 0.13758-0.29634 0.13758-0.43392 0.41275 0.13758 0.14817 0.13758 0.40217 0 0.15875-0.11642 0.30692-0.11642 0.13758-0.33867 0.13758t-0.34925-0.13758q-0.127-0.14817-0.127-0.381 0-0.34925 0.26459-0.63501 0.27517-0.29634 0.75142-0.46567 0.48684-0.16934 1.0795-0.16934 0.88901 0 1.3123 0.47626 0.42334 0.46567 0.41275 1.4817l-0.01058 2.3813q0 0.33867-0.04233 0.71967l0.75142-0.042334v0.4443h-1.512q-0.032-0.1587-0.074-0.6032-0.773 0.7726-1.662 0.7726zm0.244-0.6033q0.40217 0 0.73026-0.14817 0.32809-0.15875 0.66676-0.47626-0.01058-0.15875-0.01058-0.53976l0.01058-0.99484q-0.86784 0.03175-1.5452 0.35984-0.67734 0.3175-0.67734 0.98426 0 0.39159 0.23284 0.60326t0.59267 0.21167z"/>
  <path d="m41.611 8.1577q-0.49742 0-0.91018-0.13758-0.412-0.127-0.709-0.3281l0.04233 0.37042h-0.4445l-0.0635-1.8204h0.32809q0.02117 0.43392 0.23284 0.77259 0.22225 0.33867 0.57151 0.53976 0.35984 0.1905 0.76201 0.1905 0.45509 0 0.80434-0.21167 0.35984-0.22225 0.35984-0.62442 0-0.29634-0.17992-0.49742-0.169-0.2011-0.434-0.3281-0.254-0.1376-0.719-0.3175-0.561-0.2117-0.9-0.3916-0.33867-0.1905-0.58209-0.50801-0.24342-0.3175-0.24342-0.80434 0-0.34925 0.16934-0.69851 0.16934-0.34925 0.57151-0.59267t1.0689-0.24342q0.32809 0 0.66676 0.10583 0.34925 0.10583 0.64559 0.34925l-0.02117-0.40217h0.4445v1.8521h-0.33867q-0.03175-0.61384-0.381-1.0583-0.33867-0.45509-0.96309-0.45509-0.47626 0-0.76201 0.24342-0.27517 0.23284-0.27517 0.56092 0 0.30692 0.17992 0.51859 0.1905 0.21167 0.46567 0.35984t0.74084 0.32809q0.55034 0.22225 0.88901 0.41275t0.57151 0.50801q0.24342 0.30692 0.24342 0.75142 0 0.50801-0.26459 0.85726-0.254 0.34925-0.67734 0.52917-0.41276 0.16934-0.88901 0.16934z"/>
  <path d="m46.574 8.1577q-0.89959 0-1.3229-0.51859-0.413-0.5186-0.413-1.7886v-1.8839q0-0.4445 0.04233-0.68792l-0.73026 0.03175v-0.4339h0.32809q0.41275 0 0.62442-0.074084t0.35984-0.21167h0.30692v3.228q0 0.93134 0.254 1.3653 0.26459 0.43392 0.86784 0.43392 0.39159 0 0.76201-0.23284 0.381-0.23284 0.61384-0.58209v-2.7201q0-0.49742 0.05292-0.80434l-0.762 0.0317v-0.4339h0.32809q0.41276 0 0.62442-0.074084 0.21167-0.074084 0.35984-0.21167h0.30692l-0.01058 4.0005q0 0.61384-0.04233 0.99484l0.76201-0.042334v0.4445h-1.5134q-0.05292-0.32809-0.07408-0.63501-0.34925 0.34925-0.81493 0.58209-0.46567 0.22225-0.91018 0.22225z"/>
  <path d="m52.148 8.1577q-0.77259 0-1.1853-0.34925-0.40217-0.34925-0.40217-0.91018 0-0.61384 0.48684-1.0372 0.49742-0.42334 1.2383-0.62442 0.75142-0.21167 1.5028-0.20109v-0.6562q0-0.68792-0.20109-1.0689-0.20108-0.39159-0.85726-0.39159-0.32809 0-0.62442 0.13758-0.29634 0.13758-0.43392 0.41275 0.13758 0.14817 0.13758 0.40217 0 0.15875-0.11642 0.30692-0.11642 0.13758-0.33867 0.13758t-0.34925-0.13758q-0.127-0.14817-0.127-0.381 0-0.34925 0.26459-0.63501 0.27517-0.29634 0.75142-0.46567 0.48684-0.16934 1.0795-0.16934 0.88901 0 1.3123 0.47626 0.42334 0.46567 0.41276 1.4817l-0.01058 2.3813q0 0.33867-0.04233 0.71967l0.75142-0.042334v0.4445h-1.5134q-0.03175-0.15875-0.07408-0.60326-0.77259 0.77259-1.6616 0.77259zm0.24342-0.60326q0.40217 0 0.73026-0.14817 0.32809-0.15875 0.66676-0.47626-0.01058-0.15875-0.01058-0.53976l0.01058-0.99484q-0.86784 0.03175-1.5452 0.35984-0.67734 0.3175-0.67734 0.98426 0 0.39159 0.23284 0.60326t0.59267 0.21167z"/>
  <path d="m56.017 7.6708q0.30692 0 0.43392-0.14817 0.13758-0.15875 0.15875-0.39159 0.03175-0.24342 0.03175-0.75142v-5.0059q0-0.40217 0.03175-0.68792l-0.75142 0.042334v-0.44454q0.63501 0 0.89959-0.074084 0.27517-0.074084 0.42334-0.21167h0.30692l0.01058 6.8687q0 0.41275-0.05292 0.71967l0.66676-0.03175v0.4339h-2.16z"/>
  <path d="m61.681 7.6708q0.30692 0 0.43392-0.14817 0.13758-0.15875 0.15875-0.39159 0.03175-0.24342 0.03175-0.75142v-5.0059q0-0.40217 0.03175-0.68792l-0.75142 0.042334v-0.44454q0.63501 0 0.89959-0.074084 0.27517-0.074084 0.42334-0.21167h0.30692l0.01058 6.8687q0 0.41275-0.05292 0.71967l0.66676-0.03175v0.43392h-2.159z"/>
  <path d="m66.142 8.1577q-0.77259 0-1.1853-0.34925-0.40217-0.34925-0.40217-0.91018 0-0.61384 0.48684-1.0372 0.49742-0.42334 1.2383-0.62442 0.75142-0.21167 1.5028-0.20109v-0.6562q0-0.68792-0.20109-1.0689-0.20108-0.39159-0.85726-0.39159-0.32809 0-0.62442 0.13758-0.29634 0.13758-0.43392 0.41275 0.13758 0.14817 0.13758 0.40217 0 0.15875-0.11642 0.30692-0.11642 0.13758-0.33867 0.13758t-0.34925-0.13758q-0.127-0.14817-0.127-0.381 0-0.34925 0.26459-0.63501 0.27517-0.29634 0.75142-0.46567 0.48684-0.16934 1.0795-0.16934 0.88901 0 1.3123 0.47626 0.42334 0.46567 0.41275 1.4817l-0.01058 2.3813q0 0.33867-0.04233 0.71967l0.75142-0.042334v0.4445h-1.5134q-0.03175-0.15875-0.07408-0.60326-0.77259 0.77259-1.6616 0.77259zm0.24342-0.60326q0.40217 0 0.73026-0.14817 0.32809-0.15875 0.66676-0.47626-0.01058-0.15875-0.01058-0.53976l0.01058-0.99484q-0.86784 0.03175-1.5452 0.35984-0.67734 0.3175-0.67734 0.98426 0 0.39159 0.23284 0.60326t0.59267 0.21167z"/>
  <path d="m72.615 8.1577q-0.42334 0-0.83609-0.14817-0.413-0.1482-0.72-0.4974l-0.254 0.47626h-0.37042l0.02117-6.6147q0-0.40217 0.03175-0.68792l-0.752 0.04229v-0.4445q0.63501 0 0.89959-0.074084 0.27517-0.074084 0.42334-0.21167h0.30692v3.1539q0.29634-0.29634 0.69851-0.45509 0.41275-0.16934 0.89959-0.16934 0.67734 0 1.2277 0.32809 0.55034 0.32809 0.85726 0.94193 0.3175 0.61384 0.3175 1.4182 0 0.87843-0.381 1.5452-0.381 0.66676-1.016 1.0372-0.63501 0.35984-1.3547 0.35984zm0-0.43392q0.76201 0 1.2065-0.61384 0.45509-0.62442 0.45509-1.6299 0-1.1113-0.41276-1.7674-0.41275-0.66676-1.2171-0.66676-0.34925 0-0.69851 0.16934-0.33867 0.15875-0.58209 0.43392v2.6776q0 1.397 1.2488 1.397z"/>
  <path d="m78.902 8.1577q-0.73026 0-1.3441-0.33867-0.603-0.3493-0.963-0.9631-0.35-0.6139-0.35-1.3864 0-0.82551 0.34925-1.4923 0.34925-0.67734 0.95251-1.0583 0.61384-0.39159 1.3547-0.39159 0.73026 0 1.3441 0.35984 0.61384 0.34925 0.96309 0.96309 0.35984 0.61384 0.35984 1.3653 0 0.80434-0.35984 1.4817-0.34925 0.67734-0.96309 1.0689-0.60326 0.39159-1.3441 0.39159zm0.08467-0.42334q0.77259 0 1.1324-0.63501 0.37042-0.63501 0.37042-1.5769 0-1.0689-0.40217-1.8309-0.39159-0.76201-1.1853-0.76201-0.78318 0-1.1853 0.64559-0.39159 0.64559-0.39159 1.5875 0 0.67734 0.17992 1.27 0.1905 0.58209 0.56092 0.94193 0.381 0.35984 0.92076 0.35984z"/>
  <path d="m82.478 7.6708q0.30692 0 0.43392-0.14817 0.13758-0.15875 0.15875-0.39159 0.03175-0.24342 0.03175-0.75142v-2.413q0-0.4445 0.04233-0.68792l-0.75142 0.03175v-0.4339h0.32809q0.40217 0 0.58209-0.063501 0.17992-0.074084 0.33867-0.22225h0.30692q0.04233 0.41275 0.05292 1.0478 0.26459-0.43392 0.75142-0.77259 0.49742-0.33867 1.0266-0.33867 0.3175 0 0.52917 0.16934t0.21167 0.49742q0 0.16934-0.13758 0.33867-0.127 0.16934-0.37042 0.16934-0.23284 0-0.381-0.16934-0.148-0.18-0.116-0.4235-0.402-0.0105-0.815 0.307-0.402 0.3175-0.688 0.8466l0.01058 2.6035q0 0.47626-0.04233 0.71967l0.66676-0.03175v0.43392h-2.1696z"/>
  <path d="m88.466 8.1577q-0.77259 0-1.1853-0.34925-0.40217-0.34925-0.40217-0.91018 0-0.61384 0.48684-1.0372 0.49742-0.42334 1.2383-0.62442 0.75142-0.21167 1.5028-0.20109v-0.6562q0-0.68792-0.20108-1.0689-0.20109-0.39159-0.85726-0.39159-0.32809 0-0.62442 0.13758-0.29634 0.13758-0.43392 0.41275 0.13758 0.14817 0.13758 0.40217 0 0.15875-0.11642 0.30692-0.11642 0.13758-0.33867 0.13758t-0.34925-0.13758q-0.127-0.14817-0.127-0.381 0-0.34925 0.26459-0.63501 0.27517-0.29634 0.75142-0.46567 0.48684-0.16934 1.0795-0.16934 0.88901 0 1.3123 0.47626 0.42334 0.46567 0.41275 1.4817l-0.01058 2.3813q0 0.33867-0.04233 0.71967l0.75142-0.042334v0.4443h-1.512q-0.032-0.1587-0.074-0.6032-0.773 0.7726-1.662 0.7726zm0.24342-0.60326q0.40217 0 0.73026-0.14817 0.32809-0.15875 0.66676-0.47626-0.01058-0.15875-0.01058-0.53976l0.01058-0.99484q-0.86784 0.03175-1.5452 0.35984-0.67734 0.3175-0.67734 0.98426 0 0.39159 0.23284 0.60326t0.59267 0.21167z"/>
  <path d="m94.349 8.1577q-1.4499 0-1.4393-1.9474l0.02117-3.0692-0.81493 0.010584v-0.4551q0.50801-0.010583 0.85726-0.45509 0.35984-0.45509 0.52917-1.0266h0.35984v1.4817h1.778v0.41275l-1.778 0.021167q-0.01058 1.6193-0.02117 2.2437 0 0.62442 0 0.69851 0 0.75142 0.17992 1.1218 0.17992 0.35984 0.62442 0.35984 0.27517 0 0.53976-0.16934 0.27517-0.16934 0.47626-0.46567l0.28575 0.23284q-0.41276 0.61384-0.81493 0.81493-0.40217 0.1905-0.78318 0.1905z"/>
  <path d="m99.077 8.1577q-0.73026 0-1.3441-0.33867-0.604-0.3493-0.964-0.9631-0.349-0.6139-0.349-1.3864 0-0.82551 0.34925-1.4923 0.34925-0.67734 0.95251-1.0583 0.61384-0.39159 1.3547-0.39159 0.73026 0 1.3441 0.35984 0.61384 0.34925 0.9631 0.96309 0.35983 0.61384 0.35983 1.3653 0 0.80434-0.35983 1.4817-0.34926 0.67734-0.9631 1.0689-0.60325 0.39159-1.3441 0.39159zm0.08467-0.42334q0.77259 0 1.1324-0.63501 0.37042-0.63501 0.37042-1.5769 0-1.0689-0.40217-1.8309-0.39159-0.76201-1.1853-0.76201-0.78318 0-1.1853 0.64559-0.39159 0.64559-0.39159 1.5875 0 0.67734 0.17992 1.27 0.1905 0.58209 0.56092 0.94193 0.381 0.35984 0.92076 0.35984z"/>
  <path d="m102.65 7.6708q0.30692 0 0.43392-0.14817 0.13759-0.15875 0.15875-0.39159 0.0317-0.24342 0.0317-0.75142v-2.413q0-0.4445 0.0423-0.68792l-0.75143 0.03175v-0.4339h0.32809q0.40217 0 0.58209-0.063501 0.17992-0.074084 0.33867-0.22225h0.30692q0.0423 0.41275 0.0529 1.0478 0.26458-0.43392 0.75142-0.77259 0.49742-0.33867 1.0266-0.33867 0.3175 0 0.52917 0.16934t0.21167 0.49742q0 0.16934-0.13759 0.33867-0.127 0.16934-0.37042 0.16934-0.23283 0-0.381-0.16934-0.14817-0.17992-0.11642-0.42334-0.40217-0.010584-0.81493 0.30692-0.40217 0.3175-0.68792 0.84668l0.0106 2.6035q0 0.47626-0.0423 0.71967l0.66676-0.03175v0.43392h-2.1696z"/>
  <path d="m108.29 1.543q-0.22226 0-0.39159-0.17992-0.16934-0.1905-0.16934-0.4445t0.16934-0.4445q0.17992-0.1905 0.40217-0.1905 0.24342 0 0.40217 0.1905 0.16933 0.17992 0.16933 0.4445 0 0.254-0.17991 0.4445-0.16934 0.17992-0.40217 0.17992zm-1.0478 6.1278q0.30692 0 0.43393-0.14817 0.13758-0.15875 0.15875-0.39159 0.0318-0.24342 0.0318-0.75142v-2.413q0-0.30692 0.0423-0.68792l-0.75142 0.042334v-0.4445q0.62442 0 0.88901-0.074084 0.27517-0.074084 0.42333-0.21167h0.30692v4.2757q0 0.47626-0.0423 0.71967l0.66676-0.03175v0.43392h-2.159z"/>
  <path d="m112.78 8.1577q-0.73026 0-1.3229-0.33867-0.58209-0.34925-0.92076-0.98426-0.33867-0.64559-0.33867-1.4817 0-0.74084 0.33867-1.3864 0.33867-0.65617 0.94193-1.0478 0.61384-0.39159 1.3864-0.39159 0.60326 0 1.0901 0.26459t0.7726 0.79376q0.28575 0.51859 0.28575 1.2806l-3.7254 0.063501q-0.0106 1.27 0.41275 1.9791 0.43392 0.70909 1.3335 0.70909 0.48684 0 0.99485-0.254 0.51859-0.254 0.79376-0.62442l0.254 0.21167q-0.40217 0.61384-1.0478 0.91018-0.63501 0.29634-1.2488 0.29634zm1.24-3.6725q0-0.63501-0.28575-1.0901t-0.85726-0.45509q-1.3124 0-1.5558 1.5452z"/>
  <path d="m118.13 8.1577q-0.49743 0-0.91018-0.13758-0.41275-0.127-0.70909-0.32809l0.0423 0.37042h-0.4445l-0.06-1.8204h0.32808q0.0212 0.43392 0.23284 0.77259 0.22225 0.33867 0.57151 0.53976 0.35983 0.1905 0.762 0.1905 0.45509 0 0.80435-0.21167 0.35983-0.22225 0.35983-0.62442 0-0.29634-0.17992-0.49742-0.16933-0.20109-0.43392-0.32809-0.254-0.13758-0.71967-0.3175-0.56092-0.21167-0.89959-0.39159-0.33867-0.1905-0.58209-0.50801-0.24342-0.3175-0.24342-0.80434 0-0.34925 0.16933-0.69851 0.16934-0.34925 0.57151-0.59267t1.0689-0.24342q0.32808 0 0.66675 0.10583 0.34926 0.10583 0.64559 0.34925l-0.0212-0.40217h0.4445v1.8521h-0.33867q-0.0318-0.61384-0.381-1.0583-0.33867-0.45509-0.9631-0.45509-0.47625 0-0.762 0.24342-0.27517 0.23284-0.27517 0.56092 0 0.30692 0.17992 0.51859 0.1905 0.21167 0.46567 0.35984t0.74084 0.32809q0.55034 0.22225 0.88901 0.41275t0.5715 0.50801q0.24342 0.30692 0.24342 0.75142 0 0.50801-0.26458 0.85726-0.25401 0.34925-0.67734 0.52917-0.41276 0.16934-0.88901 0.16934z"/>
 </g>
</svg>
