<?xml version="1.0" encoding="UTF-8" standalone="no"?>
<svg xmlns:rdf="http://www.w3.org/1999/02/22-rdf-syntax-ns#" xmlns="http://www.w3.org/2000/svg" height="14.111mm" width="14.111mm" version="1.1" xmlns:cc="http://creativecommons.org/ns#" xmlns:dc="http://purl.org/dc/elements/1.1/" viewBox="0 0 49.999998 49.999989">
<g transform="translate(877.14 -193.79)">
<path d="m-837.46 207.24c-1.1094 0.71873-2.3438 1.25-3.6719 1.5312-1.0469-1.2344-2.5469-2-4.2031-2-3.1875 0-5.7657 2.8281-5.7657 6.3125 0 0.50001 0.047 0.98439 0.1407 1.4375-4.7969-0.26563-9.0469-2.7813-11.891-6.5937-0.5 0.93748-0.7813 2.0156-0.7813 3.1719 0 2.1875 1.0157 4.125 2.5625 5.25-0.9375-0.0314-1.8281-0.3125-2.6093-0.78126v0.0783c0 3.0625 1.9844 5.6094 4.625 6.1875-0.4844 0.14051-1 0.21875-1.5157 0.21875-0.375 0-0.7343-0.0312-1.0937-0.10938 0.7344 2.5 2.875 4.3281 5.3906 4.375-1.9687 1.7031-4.4531 2.7031-7.1562 2.7031-0.4688 0-0.9375-0.0312-1.375-0.0781 2.5468 1.7812 5.5781 2.8281 8.8437 2.8281 10.609 0 16.406-9.6094 16.406-17.953l-0.016-0.81252c1.1406-0.8906 2.1094-2 2.8906-3.2812-1.0469 0.51563-2.1562 0.84373-3.3125 0.99998 1.1875-0.78123 2.0938-2.0156 2.5313-3.4843zm-14.688 36.547c-13.812 0-25-11.187-25-25s11.188-25 25-25 25 11.187 25 25-11.188 25-25 25z" fill-rule="evenodd" fill="#333"/>
</g>
</svg>
