<?xml version="1.0" encoding="UTF-8"?><svg id="Layer" width="50" height="50" version="1.1" viewBox="0 0 50 50" xml:space="preserve" xmlns="http://www.w3.org/2000/svg" xmlns:cc="http://creativecommons.org/ns#" xmlns:dc="http://purl.org/dc/elements/1.1/" xmlns:rdf="http://www.w3.org/1999/02/22-rdf-syntax-ns#"><metadata><rdf:RDF><cc:Work rdf:about=""><dc:format>image/svg+xml</dc:format><dc:type rdf:resource="http://purl.org/dc/dcmitype/StillImage"/><dc:title/></cc:Work></rdf:RDF></metadata><path d="m31.25 17.188h3.125v-3.125h-3.125zm-6.25 0c-1.75 0-3.3438 0.59375-4.6406 1.5625h-7.8594v-1.5625c0-2.5938 2.0938-4.6875 4.6875-4.6875h15.625c2.5938 0 4.6875 2.0938 4.6875 4.6875v1.5625h-7.8594c-1.2969-0.96875-2.8906-1.5625-4.6406-1.5625zm0 3.125c2.5938 0 4.6875 2.0938 4.6875 4.6875s-2.0938 4.6875-4.6875 4.6875-4.6875-2.0938-4.6875-4.6875 2.0938-4.6875 4.6875-4.6875zm7.8125 17.188h-15.625c-2.5938 0-4.6875-2.0938-4.6875-4.6875v-12.5h6.2812c-0.98438 1.3125-1.5938 2.9219-1.5938 4.6875 0 4.3125 3.5 7.8125 7.8125 7.8125s7.8125-3.5 7.8125-7.8125c0-1.7656-0.60938-3.375-1.5938-4.6875h6.2812v12.5c0 2.5938-2.0938 4.6875-4.6875 4.6875zm7.8125-21.875c0-3.4531-2.7969-6.25-6.25-6.25h-18.75c-3.4531 0-6.25 2.7969-6.25 6.25v18.75c0 3.4531 2.7969 6.25 6.25 6.25h18.75c3.4531 0 6.25-2.7969 6.25-6.25zm-15.625 34.375c-13.812 0-25-11.188-25-25s11.188-25 25-25 25 11.188 25 25-11.188 25-25 25z" clip-rule="evenodd" fill="#333" fill-rule="evenodd"/></svg>