<?xml version="1.0" encoding="UTF-8" standalone="no"?>
<svg xmlns:rdf="http://www.w3.org/1999/02/22-rdf-syntax-ns#" xmlns="http://www.w3.org/2000/svg" height="14.111mm" width="14.111mm" version="1.1" xmlns:cc="http://creativecommons.org/ns#" xmlns:dc="http://purl.org/dc/elements/1.1/" viewBox="0 0 49.999998 49.999999">
<g transform="translate(446.14 -579.51)">
<path style="color-rendering:auto;color:#000000;isolation:auto;mix-blend-mode:normal;shape-rendering:auto;solid-color:#000000;image-rendering:auto" d="m-410.14 592.02c1.2031 0 2.1719 0.9375 2.1719 2.1094s-0.96875 2.1094-2.1719 2.1094c-1.1875 0-2.1562-0.9375-2.1562-2.1094s0.96875-2.1094 2.1562-2.1094zm-25.219 13.359c-0.40625-0.23437-1.0312-0.6875-1-2.1406 0-1.2812 1.4531-2.2969 2.3438-2.2969 0.64061-0.0156 1.4688 0.15625 1.7656 0.5-0.75 0.42188-2.6562 2.5156-3.1094 3.9375zm19.578-0.875c-1.125 0-2.0469 0.92188-2.0469 2.0469 0 1.1406 0.92186 2.0625 2.0469 2.0625s2.0469-0.92188 2.0469-2.0625c0-1.125-0.92189-2.0469-2.0469-2.0469zm-10.219 7.0469c-1.0469-0.79688-1.9219 0.42187-1.1875 1.1562 2.6875 2.4688 10.203 2.3906 12.094 0.0625 0.73436-0.73438-0.0469-2.0781-1.0469-1.25-1.75 1.75-7.875 2.0156-9.8594 0.0312zm-0.45311-7.0469c-1.125 0-2.0469 0.92188-2.0469 2.0469 0 1.1406 0.92189 2.0625 2.0469 2.0625 1.1406 0 2.0469-0.92188 2.0469-2.0625 0-1.125-0.90625-2.0469-2.0469-2.0469zm5.4062 12.344c-7.1719 0-12.984-3.8594-12.984-8.5938 0-4.75 5.8125-8.5938 12.984-8.5938 7.1719 0 13 3.8438 13 8.5938 0 4.7344-5.8281 8.5938-13 8.5938zm14.219-11.469c-0.71875-1.5312-1.8281-2.875-3.1406-3.9531 0.45314-0.40625 1-0.54688 1.7188-0.5 0.92189 0.0625 2.4219 0.85937 2.4375 2.3438 0 1.25-0.5625 1.8438-1.0156 2.1094zm1.5781-4.7969c-0.54686-0.57813-1.75-1.3281-3.1875-1.3281-1.5156 0.0937-1.9531 0.35938-3.0312 1.2031-2.3438-1.375-5.3125-2.2344-8.5469-2.3906-0.0311-0.90625 0-5.375 3.6094-4.8594 0.96875 0.0156 2.0156 0.53125 2.5156 0.82812l-0.0156 0.1875c0 2.0781 1.7031 3.7656 3.7969 3.7656 2.1094 0 3.8125-1.6875 3.8125-3.7656 0-2.0938-1.7031-3.7812-3.8125-3.7812-1.4531 0-2.7188 0.82813-3.3438 2.0312-0.29687-0.15625-1.3594-0.6875-2.9531-0.90625-5.1719-0.60937-5.3438 5.2188-5.3281 6.4531-3.4375 0.0937-6.5938 1-9.0312 2.4531-0.0625-0.0469-1.2344-1.1875-3.0469-1.1875-1.4375 0.0937-2.4219 0.5625-3.2188 1.3125-0.79688 0.89063-1.2969 1.8594-1.1719 3.375 0.32813 2.0156 2.0781 2.9531 2.3594 3.0938-0.0781 0.39063-0.10938 0.79688-0.10938 1.2188 0 5.6719 6.6406 10.281 14.859 10.281 8.2031 0 14.859-4.6094 14.859-10.281 0-0.4375-0.0625-0.85937-0.14062-1.2812l0.0469 0.0469c0.46875-0.28125 2.1406-1.4062 2.2969-3.0781 0.078-1.9062-0.51564-2.6562-1.2188-3.3906zm-15.891 28.922c-13.812 0-25-11.188-25-25s11.188-25 25-25 25 11.188 25 25-11.188 25-25 25z" fill-rule="evenodd" fill="#333"/>
</g>
</svg>
