<?xml version="1.0" encoding="UTF-8" standalone="no"?>
<svg xmlns:rdf="http://www.w3.org/1999/02/22-rdf-syntax-ns#" xmlns="http://www.w3.org/2000/svg" height="16.058mm" width="12.935mm" version="1.1" xmlns:cc="http://creativecommons.org/ns#" xmlns:dc="http://purl.org/dc/elements/1.1/" viewBox="0 0 45.8333 56.899596">
<g transform="translate(1260.1 153.23)">
<path d="m-1233.5-153.23c-11.998 0-22.19 11.603-22.19 25.269 0 8.8993 5.2621 14.784 13.128 14.784 6.1182 0 12.138-3.9101 15.713-10.108l-1.5103 8.423c-1.6686 9.2171-7.925 15.597-15.394 15.597-1.8275 0-3.5946-0.55683-5.0248-1.5103-1.1124-0.71512-1.3427-1.0513-2.6141-3.5145-0.874-1.748-2.1379-2.5269-4.1244-2.5269-2.4632 0-4.531 1.7467-4.531 3.8921 0 3.4961 6.9177 6.5933 14.784 6.5933 6.3566 0 12.637-2.0592 17.166-5.6349 4.2907-3.3372 5.9549-6.6169 7.4646-15.278l6.419-35.261h-6.419l-1.8298 4.2697c-2.7016-3.1783-6.7465-4.9958-11.037-4.9958zm1.2489 3.7468c3.5756 0 6.6768 1.4153 8.7426 4.0373 0.2384 0.31787 0.2554 0.3135 0.4938 0.55191-2.2248 11.839-3.0127 14.619-5.6348 19.228-3.0193 5.2442-7.8655 8.7426-12.315 8.7426-4.3702 0-6.9999-3.4129-6.9999-8.975 0-5.562 2.0712-12.47 5.17-17.079 2.781-4.1318 6.65-6.5061 10.543-6.5061z" fill="#333"/>
</g>
</svg>
