<?xml version="1.0" encoding="UTF-8" standalone="no"?>
<svg xmlns:rdf="http://www.w3.org/1999/02/22-rdf-syntax-ns#" xmlns="http://www.w3.org/2000/svg" version="1.1" xml:space="preserve" height="70" width="70" enable-background="new 0 0 48 48" xmlns:cc="http://creativecommons.org/ns#" xmlns:dc="http://purl.org/dc/elements/1.1/" viewBox="0 0 70 70"><g transform="matrix(2.1875 0 0 2.1875 -172.82 119.95)" fill="#ff3e2e"><g fill="#ff3e2e"><g transform="matrix(.66667 0 0 .66667 79.002 -54.834)" stroke-width="1.4583" fill="#ff3e2e"><g stroke-width="1.4583" fill="#ff3e2e"><rect height="30" width="2" y="9" x="42" stroke-width="1.4583" fill="#ff3e2e"/><rect height="2" width="30" y="4" x="9" stroke-width="1.4583" fill="#ff3e2e"/><rect height="30" width="2" y="9" x="5" stroke-width="1.4583" fill="#ff3e2e"/><rect height="2" width="30" y="42" x="9" stroke-width="1.4583" fill="#ff3e2e"/><path d="m10 10h-10v-10h10v10zm-8-2h6v-6h-6v6z" stroke-width="1.4583" fill="#ff3e2e"/><path d="m48 10h-10v-10h10v10zm-8-2h6v-6h-6v6z" stroke-width="1.4583" fill="#ff3e2e"/><path d="m10 48h-10v-10h10v10zm-8-2h6v-6h-6v6z" stroke-width="1.4583" fill="#ff3e2e"/><path d="m48 48h-10v-10h10v10zm-8-2h6v-6h-6v6z" stroke-width="1.4583" fill="#ff3e2e"/></g></g></g></g></svg>
