<?xml version="1.0" encoding="UTF-8" standalone="no"?>
<svg xmlns:rdf="http://www.w3.org/1999/02/22-rdf-syntax-ns#" xmlns="http://www.w3.org/2000/svg" version="1.1" xml:space="preserve" height="70" width="70" enable-background="new 0 0 48 48" xmlns:cc="http://creativecommons.org/ns#" xmlns:dc="http://purl.org/dc/elements/1.1/" viewBox="0 0 70 70.000008"><g transform="matrix(2.1875 0 0 2.1875 315.57 119.95)" fill="#ff3e2e"><g fill="#ff3e2e"><path d="m-129.59-54.834c-1.1027 0-2 0.89733-2 2v2.483c-0.852 0.24599-1.6731 0.58607-2.4518 1.0161l-1.7571-1.7562c-0.756-0.756-2.0732-0.75467-2.8286 0l-1.8848 1.8857c-0.78 0.78-0.78 2.0477 0 2.8277l1.7554 1.7571c-0.43067 0.77867-0.7703 1.6007-1.017 2.4527h-2.483c-0.53467 0-1.0363 0.20839-1.4143 0.58572-0.37734 0.37733-0.58572 0.87962-0.58572 1.4143v2.667c0 1.1027 0.89733 2 2 2h2.4821c0.246 0.854 0.58697 1.6753 1.017 2.4527l-1.7572 1.7571c-0.378 0.37733-0.58571 0.87939-0.58571 1.4134 0 0.534 0.20771 1.037 0.58571 1.4143l1.8866 1.8857c0.756 0.75467 2.0726 0.756 2.8286 0l1.7554-1.7571c0.77933 0.43067 1.6011 0.77119 2.4545 1.0179v2.483c0 1.1027 0.89733 2 2 2h2.667c1.1033 0 1.9993-0.89733 2-2v-2.483c0.852-0.24667 1.674-0.5863 2.4527-1.017l1.7554 1.7562c0.756 0.75533 2.0726 0.75533 2.8286 0l1.8857-1.8857c0.78-0.78 0.78-2.0477 0-2.8277l-1.7562-1.7571c0.43-0.778 0.77119-1.5993 1.0179-2.4527h2.4821c0.53467 0 1.0378-0.20927 1.4152-0.58661 0.37733-0.37733 0.58482-0.87873 0.58482-1.4134v-2.667c0-1.1027-0.89733-2-2-2h-2.4821c-0.246-0.85333-0.5863-1.6749-1.017-2.4536l1.7562-1.7562c0.378-0.37733 0.58572-0.88029 0.58572-1.4143 0-0.534-0.20772-1.037-0.58572-1.4143l-1.8866-1.8848c-0.756-0.756-2.0726-0.75467-2.8286 0l-1.7562 1.7562c-0.77734-0.42934-1.5985-0.76941-2.4518-1.0161v-2.483c0-1.1027-0.89733-2-2-2h-2.667zm0 1.333h2.667c0.36733 0 0.66607 0.29896 0.66607 0.66696v2.9955c0 0.30799 0.21205 0.57509 0.51071 0.64642 1.0727 0.25934 2.0937 0.68293 3.0357 1.2589 0.264 0.162 0.60142 0.12135 0.81875-0.0973l2.1196-2.1188c0.252-0.25133 0.69175-0.25133 0.94375 0l1.8857 1.8848c0.124 0.124 0.19553 0.2961 0.19553 0.47143 0 0.17534-0.0715 0.34676-0.19553 0.47143l-2.1196 2.1196c-0.21799 0.21867-0.25798 0.55609-0.0973 0.81876 0.57734 0.944 1.0012 1.9662 1.2598 3.0375 0.072 0.3 0.34022 0.51071 0.64822 0.51071h2.9946c0.36734 0 0.66697 0.29897 0.66697 0.66697v2.667c0 0.17867-0.0693 0.34564-0.19465 0.46964-0.126 0.126-0.29432 0.19554-0.47232 0.19554h-2.9946c-0.308 0-0.57622 0.21138-0.64822 0.51071-0.25933 1.0727-0.68315 2.0948-1.2598 3.0375-0.16067 0.26267-0.12067 0.60142 0.0973 0.81875l2.1196 2.1196c0.26 0.26 0.26 0.68286 0 0.94286l-1.8857 1.8857c-0.25066 0.25067-0.69285 0.24933-0.94285 0l-2.1188-2.1196c-0.218-0.21733-0.55565-0.25799-0.81965-0.09732-0.94466 0.578-1.9659 1.0005-3.0366 1.2598-0.29933 0.07267-0.51071 0.34021-0.51071 0.64821v2.9955c0 0.368-0.29874 0.66696-0.66607 0.66696h-2.667c-0.36734 0-0.66697-0.29896-0.66697-0.66696v-2.9955c0-0.308-0.21049-0.57554-0.50982-0.64821-1.072-0.25933-2.0935-0.68249-3.0375-1.2598-0.10733-0.06533-0.22799-0.09732-0.34732-0.09732-0.17267 0-0.34343 0.0662-0.47143 0.19554l-2.1188 2.1196c-0.252 0.25133-0.69152 0.25133-0.94286 0l-1.8857-1.8857c-0.12401-0.124-0.19554-0.29609-0.19554-0.47143 0-0.17533 0.0715-0.34676 0.19554-0.47143l2.1188-2.1196c0.21799-0.21867 0.25799-0.55698 0.0973-0.81964-0.57667-0.94267-0.9996-1.9646-1.2589-3.0366-0.072-0.3-0.34022-0.51071-0.64822-0.51071h-2.9955c-0.36734 0-0.66607-0.29807-0.66607-0.66607v-2.667c0-0.17867 0.0693-0.34587 0.19464-0.47054 0.126-0.126 0.29343-0.19553 0.47143-0.19553h2.9964c0.308 0 0.57621-0.21139 0.64821-0.51072 0.25867-1.0707 0.6816-2.0926 1.2589-3.0366 0.16067-0.26267 0.12068-0.60231-0.0973-0.81964l-2.1196-2.1188c-0.26-0.26-0.26-0.68286 0-0.94286l1.8848-1.8857c0.252-0.25133 0.69175-0.25133 0.94375 0l2.1188 2.1196c0.21733 0.21799 0.55541 0.25799 0.81875 0.0973 0.94466-0.57734 1.9668-1.0003 3.0375-1.2589 0.29933-0.0727 0.50982-0.34022 0.50982-0.64822v-2.9955c0-0.368 0.29963-0.66697 0.66696-0.66697zm1.333 8c-3.676 0-6.6661 2.991-6.6661 6.667s2.9901 6.667 6.6661 6.667c3.6767 0 6.667-2.991 6.667-6.667s-2.991-6.667-6.667-6.667zm0 1.3339c2.9413 0 5.3339 2.3924 5.3339 5.333 0 2.9407-2.3933 5.333-5.3339 5.333-2.9407 0-5.333-2.3924-5.333-5.333 0-2.9407 2.3924-5.333 5.333-5.333z" fill="#ff3e2e"/></g></g></svg>
