<?xml version="1.0" encoding="UTF-8" standalone="no"?>
<svg xmlns:rdf="http://www.w3.org/1999/02/22-rdf-syntax-ns#" xmlns="http://www.w3.org/2000/svg" version="1.1" xml:space="preserve" height="69.495" width="50" enable-background="new 0 0 48 48" xmlns:cc="http://creativecommons.org/ns#" xmlns:dc="http://purl.org/dc/elements/1.1/" viewBox="0 0 49.999992 69.494987"><g transform="matrix(2.1875 0 0 2.1875 422.17 119.7)" fill="#ff3e2e"><g fill="#ff3e2e"><path d="m-170.13-54.718-15.714 6.2857v16.912h-2.8571c-2.3636 0-4.2857 1.9221-4.2857 4.2857s1.9221 4.2857 4.2857 4.2857c2.2829 0 4.2857-2.0029 4.2857-4.2857v-3.5714-0.71429-10.947l12.857-5.1378v11.799h-2.8572c-2.3636 0-4.2857 1.9221-4.2857 4.2857s1.9221 4.2857 4.2857 4.2857c2.2828 0 4.2857-2.0029 4.2857-4.2857v-3.5714-0.71429-18.912zm-1.4286 2.1097v3.4649l-12.857 5.1378v-3.4598l12.857-5.1429zm-2.8572 18.231h2.8572v2.8571c0 1.3486-1.2222 2.8571-2.8572 2.8571-1.5757 0-2.8572-1.2814-2.8572-2.8571s1.2814-2.8571 2.8572-2.8571zm-14.286 4.2857h2.8571v2.8571c0 1.3486-1.2221 2.8571-2.8571 2.8571-1.5757 0-2.8571-1.2814-2.8571-2.8571s1.2814-2.8571 2.8571-2.8571z" fill="#ff3e2e"/></g></g></svg>
