<?xml version="1.0" encoding="UTF-8" standalone="no"?>
<svg xmlns:rdf="http://www.w3.org/1999/02/22-rdf-syntax-ns#" xmlns="http://www.w3.org/2000/svg" version="1.1" xml:space="preserve" height="58.333" width="70" enable-background="new 0 0 48 48" xmlns:cc="http://creativecommons.org/ns#" xmlns:dc="http://purl.org/dc/elements/1.1/" viewBox="0 0 70 58.333332"><g transform="matrix(2.1875 0 0 2.1875 -416.01 114.11)" fill="#ff3e2e"><g fill="#ff3e2e"><g transform="matrix(.66667 0 0 .66667 190.18 -55.5)" fill="#ff3e2e"><g fill="#ff3e2e"><path fill="#ff3e2e" d="m41 37h-34c-0.553 0-1-0.448-1-1v-22c0-0.552 0.447-1 1-1h3v2h-2v20h32v-4h2v5c0 0.552-0.447 1-1 1z"/><path fill="#ff3e2e" d="m47 29h-34c-0.553 0-1-0.448-1-1v-22c0-0.552 0.447-1 1-1h34c0.553 0 1 0.448 1 1v22c0 0.552-0.447 1-1 1zm-33-2h32v-20h-32v20z"/><path fill="#ff3e2e" d="m35 45h-34c-0.553 0-1-0.448-1-1v-22c0-0.552 0.447-1 1-1h3v2h-2v20h32v-4h2v5c0 0.552-0.447 1-1 1z"/></g></g></g></g></svg>
