<?xml version="1.0" encoding="UTF-8" standalone="no"?>
<svg xmlns:rdf="http://www.w3.org/1999/02/22-rdf-syntax-ns#" xmlns="http://www.w3.org/2000/svg" version="1.1" xml:space="preserve" height="63.75" width="70" enable-background="new 0 0 48 48" xmlns:cc="http://creativecommons.org/ns#" xmlns:dc="http://purl.org/dc/elements/1.1/" viewBox="0 0 69.999999 63.749579"><g transform="matrix(2.1875 0 0 2.1875 -542.61 116.82)" fill="#ff3e2e"><g fill="#ff3e2e"><g transform="matrix(.66667 0 0 .66667 248.05 -55.596)" stroke-width="3.1015" fill="#ff3e2e"><g stroke-width="3.1015" fill="#ff3e2e"><path d="m24 47.001c-0.173 0-0.346-0.045-0.501-0.135-0.239-0.138-5.913-3.447-11.678-8.778-7.844-7.253-11.821-14.42-11.821-21.301 0-9.275 6.279-13.5 12.113-13.5 4.499 0 9.53 2.572 11.887 8.229 2.357-5.657 7.389-8.229 11.887-8.229 5.834 0 12.113 4.225 12.113 13.5 0 6.881-3.977 14.048-11.821 21.301-5.765 5.331-11.439 8.641-11.678 8.778-0.155 0.09-0.328 0.135-0.501 0.135zm-11.887-41.714c-4.871 0-10.113 3.599-10.113 11.5 0 13.863 18.674 25.996 22 28.046 3.323-2.051 22-14.193 22-28.046 0-7.901-5.242-11.5-10.113-11.5-4.473 0-9.58 3.062-10.905 9.903-0.091 0.47-0.503 0.81-0.982 0.81s-0.891-0.34-0.982-0.81c-1.325-6.84-6.432-9.903-10.905-9.903z" stroke-width="3.1015" fill="#ff3e2e"/></g></g></g></g></svg>
