<?xml version="1.0" encoding="UTF-8" standalone="no"?>
<svg xmlns:rdf="http://www.w3.org/1999/02/22-rdf-syntax-ns#" xmlns="http://www.w3.org/2000/svg" version="1.1" xml:space="preserve" height="70" width="70" enable-background="new 0 0 48 48" xmlns:cc="http://creativecommons.org/ns#" xmlns:dc="http://purl.org/dc/elements/1.1/" viewBox="0 0 70 70"><g transform="matrix(2.1875 0 0 2.1875 188.97 119.95)" fill="#ff3e2e"><g fill="#ff3e2e"><g transform="matrix(.66667 0 0 .66667 -86.388 -54.834)" stroke-width="2.1267" fill="#ff3e2e"><g stroke-width="2.1267" fill="#ff3e2e"><path d="m44 48h-40c-2.206 0-4-1.794-4-4v-40c0-2.206 1.794-4 4-4h40c2.206 0 4 1.794 4 4v40c0 2.206-1.794 4-4 4zm-40-46c-1.103 0-2 0.897-2 2v40c0 1.103 0.897 2 2 2h40c1.103 0 2-0.897 2-2v-40c0-1.103-0.897-2-2-2h-40z" stroke-width="2.1267" fill="#ff3e2e"/><path d="m24 30c-0.552 0-1-0.447-1-1v-14c0-0.553 0.448-1 1-1s1 0.447 1 1v14c0 0.553-0.448 1-1 1z" stroke-width="2.1267" fill="#ff3e2e"/><path d="m34 30c-0.552 0-1-0.447-1-1v-4c0-0.553 0.448-1 1-1s1 0.447 1 1v4c0 0.553-0.448 1-1 1z" stroke-width="2.1267" fill="#ff3e2e"/><path d="m14 18c-0.552 0-1-0.447-1-1v-10c0-0.553 0.448-1 1-1s1 0.447 1 1v10c0 0.553-0.448 1-1 1z" stroke-width="2.1267" fill="#ff3e2e"/><path d="m14 30c-0.552 0-1-0.447-1-1v-8c0-0.553 0.448-1 1-1s1 0.447 1 1v8c0 0.553-0.448 1-1 1z" stroke-width="2.1267" fill="#ff3e2e"/><path d="m34 22c-0.552 0-1-0.447-1-1v-14c0-0.553 0.448-1 1-1s1 0.447 1 1v14c0 0.553-0.448 1-1 1z" stroke-width="2.1267" fill="#ff3e2e"/><path d="m24 12c-0.552 0-1-0.447-1-1v-4c0-0.553 0.448-1 1-1s1 0.447 1 1v4c0 0.553-0.448 1-1 1z" stroke-width="2.1267" fill="#ff3e2e"/><path d="m37 26h-6c-0.552 0-1-0.447-1-1v-4c0-0.553 0.448-1 1-1h6c0.552 0 1 0.447 1 1v4c0 0.553-0.448 1-1 1zm-5-2h4v-2h-4v2z" stroke-width="2.1267" fill="#ff3e2e"/><path d="m27 16h-6c-0.552 0-1-0.447-1-1v-4c0-0.553 0.448-1 1-1h6c0.552 0 1 0.447 1 1v4c0 0.553-0.448 1-1 1zm-5-2h4v-2h-4v2z" stroke-width="2.1267" fill="#ff3e2e"/><path d="m17 22h-6c-0.552 0-1-0.447-1-1v-4c0-0.553 0.448-1 1-1h6c0.552 0 1 0.447 1 1v4c0 0.553-0.448 1-1 1zm-5-2h4v-2h-4v2z" stroke-width="2.1267" fill="#ff3e2e"/><path d="m34 42c-2.206 0-4-1.794-4-4s1.794-4 4-4 4 1.794 4 4-1.794 4-4 4zm0-6c-1.103 0-2 0.897-2 2s0.897 2 2 2 2-0.897 2-2-0.897-2-2-2z" stroke-width="2.1267" fill="#ff3e2e"/><path d="m24 42c-2.206 0-4-1.794-4-4s1.794-4 4-4 4 1.794 4 4-1.794 4-4 4zm0-6c-1.103 0-2 0.897-2 2s0.897 2 2 2 2-0.897 2-2-0.897-2-2-2z" stroke-width="2.1267" fill="#ff3e2e"/><path d="m14 42c-2.206 0-4-1.794-4-4s1.794-4 4-4 4 1.794 4 4-1.794 4-4 4zm0-6c-1.103 0-2 0.897-2 2s0.897 2 2 2 2-0.897 2-2-0.897-2-2-2z" stroke-width="2.1267" fill="#ff3e2e"/></g></g></g></g></svg>
