<?xml version="1.0" encoding="UTF-8" standalone="no"?>
<svg xmlns:rdf="http://www.w3.org/1999/02/22-rdf-syntax-ns#" xmlns="http://www.w3.org/2000/svg" height="65" width="148.78" version="1.1" xmlns:cc="http://creativecommons.org/ns#" xmlns:dc="http://purl.org/dc/elements/1.1/" viewBox="0 0 148.77956 65">
<g fill="#646464" transform="matrix(1.4878 0 0 1.4878 -.0016708 0)">
<path d="m2.343 25.944c-1.405-0.938-2.343-2.811-2.343-4.452 0-1.64 0.703-3.162 2.46-3.982h-0.117c8.317-4.92 19.915-11.48 27.647-16.049v10.895c-3.046 1.757-7.146 3.749-17.455 9.255l0.117 0.116c5.506 2.461 11.832 6.209 17.338 9.489v11.012l-27.647-16.284z"/>
<path d="m97.657 17.744c1.404 0.938 2.343 2.812 2.343 4.452s-0.703 3.162-2.461 3.982h0.118c-8.317 4.92-19.916 11.48-27.647 16.049v-10.895c3.046-1.756 7.146-3.748 17.455-9.254l-0.117-0.116c-5.505-2.461-11.832-6.209-17.338-9.489v-11.012l27.647 16.283z"/>
<path d="m46.401 43.688h-7.011l14.09-43.688h7.13l-14.209 43.688z"/>
</g>
</svg>
