<?xml version="1.0" encoding="UTF-8" standalone="no"?>
<svg xmlns:rdf="http://www.w3.org/1999/02/22-rdf-syntax-ns#" xmlns="http://www.w3.org/2000/svg" height="14.111mm" width="14.111mm" version="1.1" xmlns:cc="http://creativecommons.org/ns#" xmlns:dc="http://purl.org/dc/elements/1.1/" viewBox="0 0 49.999998 49.999999">
<g transform="translate(565.42 -481.65)">
<path style="color-rendering:auto;color:#000000;isolation:auto;mix-blend-mode:normal;shape-rendering:auto;solid-color:#000000;image-rendering:auto" d="m-540.42 481.65c-13.812 0-25 11.188-25 25s11.188 25 25 25 25-11.188 25-25-11.188-25-25-25zm12.047 10.979-1.1777 1.1797c-0.64818 0.64933-3.0441 3.0475-5.3223 5.3281s-4.2864 4.29-4.4629 4.4668c-0.40241 0.4031-0.42669 0.42692-0.51172 0.46679-0.11342 0.0532-0.25869 0.0408-0.37305-0.0312-0.0584-0.0368-0.12964-0.12022-0.16211-0.18945l-0.0293-0.0625-0.006-2.3457-0.008-2.3438-1.2422-0.004c-1.4676-0.004-1.8319 0.006-2.4043 0.0644-0.38419 0.0393-0.84245 0.13295-1.1738 0.23828-0.27619 0.0878-0.64204 0.25454-0.86523 0.39648-0.98782 0.62821-1.5409 1.6977-1.7188 3.3203-0.0353 0.3216-0.0473 0.49965-0.0605 0.85938-0.007 0.18044-0.0117 1.8314-0.0117 4.2324v3.9356l-2.168 2.1719c-1.1923 1.1944-2.6576 2.665-3.2578 3.2676l-1.0918 1.0957 0.004-7.9043c0.003-5.8458 0.01-7.9557 0.0176-8.1016 0.0544-0.84442 0.0851-1.1858 0.16015-1.709 0.25635-1.7858 0.78146-3.282 1.5781-4.5078 0.70375-1.0828 1.6358-1.9551 2.7598-2.5781 1.0226-0.56684 2.2216-0.94345 3.5606-1.1191 0.36312-0.0476 0.46636-0.0575 1.1289-0.10742 0.11942-0.009 2.4418-0.0129 8.5-0.0156l8.3379-0.004zm1.9512 2.0156c0.002 0 0.004 3.5603 0.002 7.9121-0.003 6.0501-0.008 7.9603-0.0176 8.1152-0.06 0.91439-0.10974 1.4004-0.20899 2-0.24074 1.454-0.67158 2.7221-1.2793 3.7734-0.29578 0.51166-0.63207 0.9844-0.96093 1.3477-0.32959 0.36404-0.56577 0.59087-0.9043 0.86719-0.98398 0.80314-2.2272 1.3847-3.6367 1.7012-0.66543 0.14938-1.1547 0.21531-2.1484 0.29297-0.13034 0.0102-2.1095 0.0149-8.5195 0.0176-4.5928 0.002-8.3499-0.001-8.3496-0.006 0.00088-0.006 2.5596-2.5706 5.6875-5.7012 5.1656-5.1701 5.6942-5.6964 5.7539-5.7246 0.0579-0.0274 0.078-0.0312 0.16992-0.0312 0.0955 0 0.10977 0.005 0.17578 0.0371 0.0868 0.0428 0.16408 0.11958 0.20508 0.20703l0.0293 0.0625 0.004 2.3398c0.002 1.2862 0.007 2.3409 0.0117 2.3457 0.0137 0.0138 2.5864 0.0139 2.8887 0 0.65206-0.0301 1.1012-0.0843 1.5332-0.18359 1.3695-0.31482 2.2429-1.0969 2.6816-2.4023 0.20845-0.6202 0.3203-1.3232 0.35742-2.2383 0.007-0.16762 0.0114-1.7828 0.0117-4.2402v-3.9688l1.4258-1.4297c2.0549-2.0619 5.083-5.0938 5.0879-5.0938z" fill-rule="evenodd" fill="#333"/>
</g>
</svg>
