<?xml version="1.0" encoding="UTF-8" standalone="no"?>
<svg xmlns:rdf="http://www.w3.org/1999/02/22-rdf-syntax-ns#" xmlns="http://www.w3.org/2000/svg" height="14.111mm" width="14.111mm" version="1.1" xmlns:cc="http://creativecommons.org/ns#" xmlns:dc="http://purl.org/dc/elements/1.1/" viewBox="0 0 49.999998 49.999992">
<g transform="translate(1303.6 119.78)">
<path d="m-1291.1-110.41v5.5s20.281 1.4375 21.531 22.5h5.2188s1.375-26.297-26.75-28zm0 14.906s11.828 0.53125 12.438 13.219h5.2344s0.25-17.922-17.672-18.703v5.4844zm3.9062 13.219c2.1563 0 3.9063-1.75 3.9063-3.9062s-1.75-3.9062-3.9063-3.9062c-2.1562 0-3.9062 1.75-3.9062 3.9062s1.75 3.9062 3.9062 3.9062zm8.5938 12.5c-13.812 0-25-11.188-25-25 0-13.813 11.188-25 25-25s25 11.188 25 25-11.188 25-25 25z" fill-rule="evenodd" fill="#333"/>
</g>
</svg>
