<?xml version="1.0" encoding="UTF-8" standalone="no"?>
<svg xmlns:rdf="http://www.w3.org/1999/02/22-rdf-syntax-ns#" xmlns="http://www.w3.org/2000/svg" height="14.111mm" width="14.111mm" version="1.1" xmlns:cc="http://creativecommons.org/ns#" xmlns:dc="http://purl.org/dc/elements/1.1/" viewBox="0 0 49.999951 49.999989">
<g transform="translate(785 -267.36)">
<path d="m-754.08 289.28v-6.5469h-6.4844v-6.2031h-5.1875c-0.18753 1.5156-0.3594 2.6875-0.53127 3.4844-0.17188 0.78126-0.39062 1.4531-0.6875 1.9844-0.29685 0.51562-0.70312 0.9531-1.2188 1.2812-0.51562 0.34375-1.2031 0.57816-2.0312 0.70316v5.2969h3.7188v9.9218c0 2.7344 0.51562 4.7344 1.5781 6.0156 1.0469 1.2812 2.6875 1.5625 4.8281 1.9219 1.2344 0.21876 2.125 0.29688 3.2969 0.1405 1.4375-0.18749 2.9375-0.59372 3.8125-0.89061l0.0468-5.4531c-0.56249 0.51562-1.1406 0.90623-1.7344 1.1875-0.57811 0.28122-1.2031 0.42185-1.875 0.42185-0.73436 0-1.3438-0.1251-1.8125-0.35937-0.46875-0.23436-0.89061-0.62501-1.25-1.1719-0.375-0.53125-0.62501-1.2969-0.76564-2.25-0.1251-0.96875-0.1875-0.70311-0.1875-2.3125v-7.1719h6.4844zm-5.9219 28.078c-13.812 0-25-11.188-25-25 0-13.813 11.187-25 25-25 13.812 0 25 11.187 25 25 0 13.812-11.187 25-25 25z" fill-rule="evenodd" fill="#333"/>
</g>
</svg>
