<?xml version="1.0" encoding="UTF-8" standalone="no"?>
<svg xmlns:rdf="http://www.w3.org/1999/02/22-rdf-syntax-ns#" xmlns="http://www.w3.org/2000/svg" height="14.111mm" width="14.107mm" version="1.1" xmlns:cc="http://creativecommons.org/ns#" xmlns:dc="http://purl.org/dc/elements/1.1/" viewBox="0 0 49.984339 49.999989">
<g transform="translate(929.99 -286.65)">
<path d="m-917.73 323.42c2.2337-0.78101 5.1234-0.89036 5.6076-0.89036 0.53108 0 0.79663 0 1.234 0.0468 4.0612 2.999 5.8107 4.483 5.8107 7.3102 0 3.0928-2.2181 5.4358-6.3886 5.8888-4.1081-1.0934-7.81-3.2178-10.793-6.0762-0.0156-0.18747-0.0781-0.3749-0.0781-0.57797 0-3.9363 3.4208-5.264 4.6079-5.7013zm-1.9369-19.666c0-1.437 0.28117-2.9366 1.1871-4.0925 0.85911-1.109 2.343-1.8276 3.7332-1.8276 4.4361 0 6.7323 6.2012 6.7323 10.184 0 0.9997-0.10935 2.7648-1.3277 4.0456-0.8591 0.89037-2.2962 1.5464-3.6395 1.5464-4.5923 0-6.6854-6.1387-6.6854-9.8563zm31.693-3.0615h-4.686v-4.686h-3.124v4.686h-4.686v3.124h4.686v4.686h3.124v-4.686h4.686v-3.124zm-17.026 35.958c-0.89034 0-1.7807-0.0469-2.6398-0.14047 4.0144-1.9682 6.1543-5.3733 6.1543-8.7785 0-3.827-2.14-5.7014-4.4986-7.7476l-1.9213-1.562c-0.57794-0.48422-1.3902-1.1559-1.3902-2.3743s0.81224-1.9994 1.4995-2.7179c2.2493-1.8276 4.483-3.7644 4.483-7.8569 0-4.2018-2.5617-6.4199-3.7957-7.4664h3.3271l3.4052-1.9994h-10.997c-2.8897 0-6.5136 0.43733-9.5751 3.0459-2.2962 2.0462-3.4052 4.8735-3.4052 7.4196 0 4.3112 3.2021 8.6848 8.8566 8.6848 0.5467 0 1.1246-0.0469 1.7182-0.10937-0.26554 0.67167-0.53108 1.2184-0.53108 2.1712 0 1.7026 0.84348 2.7648 1.5932 3.7644-2.4055 0.15615-6.8885 0.43737-10.2 2.5461-1.1403 0.68726-1.9838 1.5151-2.6086 2.3586-2.8116-4.0456-4.4674-8.9347-4.4674-14.246 0-13.793 11.184-24.992 24.992-24.992s24.992 11.2 24.992 24.992c0 13.808-11.184 25.008-24.992 25.008z" fill-rule="evenodd" fill="#333"/>
</g>
</svg>
