<?xml version="1.0" encoding="UTF-8" standalone="no"?>
<svg xmlns:rdf="http://www.w3.org/1999/02/22-rdf-syntax-ns#" xmlns="http://www.w3.org/2000/svg" height="50" width="50" version="1.1" xmlns:cc="http://creativecommons.org/ns#" xmlns:dc="http://purl.org/dc/elements/1.1/" viewBox="0 0 49.999445 49.999211">
<g transform="matrix(.81799 0 0 .81799 125.5 -436.18)">
<g fill="#333">
<path d="m-153.42 558.34q0-0.58093 0.0634-1.0668 0.0739-0.49644 0.21125-1.0668h2.1231v0.87669q0 0.72881 0.0845 1.2886 0.0951 0.55981 0.29575 0.95063 0.21125 0.38025 0.54925 0.58093 0.34856 0.19013 0.845 0.19013 0.78163 0 1.1936-0.4225 0.41194-0.43306 0.41194-1.2569 0-0.4225-0.0634-0.77106-0.0528-0.35913-0.20069-0.70769-0.13731-0.34856-0.38025-0.72881-0.24294-0.39081-0.62319-0.86613l-2.8519-3.3906q-0.7605-0.97175-1.1724-1.9541-0.41194-0.99288-0.41194-2.1125 0-0.89781 0.27463-1.6478 0.28518-0.74994 0.81331-1.2886 0.52812-0.54925 1.2992-0.845 0.78162-0.30631 1.7639-0.30631 1.1936 0 1.9858 0.338 0.80275 0.338 1.2781 0.88725 0.47531 0.54925 0.66543 1.2358 0.20069 0.676 0.20069 1.3626 0 0.58093-0.0951 1.0774-0.0845 0.48588-0.20069 1.0774h-2.1125v-0.85557q0-1.4365-0.41194-2.197-0.41193-0.77106-1.3414-0.77106-0.77107 0-1.1513 0.43306-0.38025 0.4225-0.38025 1.1408 0 0.38025 0.0528 0.68657 0.0634 0.30631 0.169 0.57037 0.11618 0.2535 0.27462 0.49644t0.35913 0.507l3.1793 3.8448q0.86612 1.1302 1.3309 2.1759 0.46475 1.0351 0.46475 2.197 0 0.96119-0.30631 1.7322-0.29575 0.77107-0.85556 1.3098-0.55981 0.53869-1.352 0.83444-0.79219 0.28519-1.7851 0.28519-1.2252 0-2.0386-0.32744-0.80275-0.32744-1.2886-0.86612-0.47531-0.53869-0.676-1.2252-0.19013-0.68657-0.19013-1.4048z"/>
<path d="m-138.63 562.15q-0.43306 0-0.94006-0.0739-0.507-0.0634-1.0034-0.28519-0.49643-0.22181-0.96118-0.62319-0.45419-0.41193-0.81332-1.0774-0.34856-0.66544-0.55981-1.6372-0.21125-0.98231-0.21125-2.3343v-6.3903q0-1.3626 0.21125-2.3238 0.22181-0.97175 0.58094-1.6266 0.35912-0.66544 0.81331-1.0562 0.46475-0.39081 0.96119-0.5915 0.507-0.21125 1.0034-0.27462 0.49643-0.0634 0.91893-0.0634 0.40138 0 0.88725 0.0634 0.49644 0.0528 0.98232 0.2535 0.49643 0.19012 0.96118 0.58093 0.46475 0.38025 0.82388 1.0457 0.35912 0.65488 0.57037 1.6372 0.22182 0.97175 0.22182 2.3554v6.3903q0 1.3414-0.22182 2.3132-0.22181 0.96118-0.58093 1.6372-0.35913 0.66544-0.83444 1.0774-0.46475 0.40137-0.96119 0.63375-0.48587 0.22181-0.97175 0.29575-0.48587 0.0739-0.87669 0.0739zm0-2.0597q0.40138 0 0.69713-0.13731 0.30631-0.13732 0.49644-0.47532 0.20068-0.338 0.29575-0.88725 0.10562-0.55981 0.10562-1.4048v-8.2071q0-0.86613-0.10562-1.4471-0.0951-0.58094-0.29575-0.9295-0.19013-0.35913-0.49644-0.507-0.29575-0.14788-0.69713-0.14788-0.41193 0-0.71825 0.14788-0.30631 0.14787-0.507 0.507-0.20068 0.34856-0.30631 0.9295-0.0951 0.58093-0.0951 1.4471v8.2071q0 0.845 0.0951 1.4048 0.10563 0.54925 0.30631 0.88725 0.20069 0.338 0.507 0.47532 0.30632 0.13731 0.71825 0.13731z"/>
<path d="m-131.66 543.95h2.7568v13.224q0 0.845 0.0845 1.4048 0.0845 0.55981 0.26406 0.89781 0.19012 0.32744 0.47531 0.47532 0.29575 0.13731 0.69713 0.13731 0.40137 0 0.69712-0.13731 0.30631-0.14788 0.49644-0.47532 0.20069-0.338 0.29575-0.89781 0.10562-0.55981 0.10562-1.4048v-13.224h2.7251v12.495q0 1.3203-0.21125 2.2604-0.21125 0.94006-0.55981 1.5738-0.34857 0.63375-0.80275 1.0034-0.44363 0.36969-0.9295 0.57038-0.47532 0.19012-0.95063 0.24293-0.47531 0.0528-0.86612 0.0528-0.39082 0-0.86613-0.0528-0.46475-0.0528-0.94006-0.24293-0.47531-0.20069-0.91894-0.57038-0.44362-0.36969-0.79219-1.0034-0.34856-0.63375-0.55981-1.5632-0.20069-0.94006-0.20069-2.2709v-12.495z"/>
<path d="m-120.04 543.95h2.9681q0.507 0 1.1091 0.0422 0.61262 0.0423 1.2147 0.21125 0.61262 0.15844 1.1724 0.48587 0.57038 0.32744 1.0034 0.89782 0.44363 0.57037 0.70769 1.4365 0.26406 0.85556 0.26406 2.0808v0.45419q0 2.0597-0.5915 3.3589-0.5915 1.2886-1.7428 1.859l2.8941 7.2142h-2.8941l-2.3977-6.7494h-1.0246v6.7494h-2.6829v-18.041zm3.0948 9.3161q0.71825 0 1.2147-0.15843 0.49644-0.15844 0.80275-0.52813 0.30632-0.38025 0.44363-0.99287 0.13731-0.62319 0.13731-1.5316v-1.4259q0-0.69713-0.12675-1.2041-0.12675-0.507-0.43306-0.83444-0.29575-0.32743-0.79219-0.48587t-1.2464-0.15844h-0.41194v7.3198h0.41194z"/>
<path d="m-105.09 562.15q-0.4225 0-0.91893-0.0739-0.48588-0.0634-0.98232-0.28519-0.48587-0.22181-0.94006-0.62319-0.44362-0.41193-0.79219-1.0774-0.338-0.66544-0.54925-1.6372-0.20068-0.98231-0.20068-2.3343v-6.3903q0-1.3626 0.21125-2.3238 0.21125-0.97175 0.55981-1.6266 0.34856-0.66544 0.80275-1.0562 0.45419-0.39081 0.94006-0.5915 0.48588-0.21125 0.96119-0.27462 0.48587-0.0634 0.89781-0.0634 1.0774 0 1.7956 0.30631 0.72881 0.29575 1.1619 0.82388 0.44363 0.51756 0.62319 1.2147 0.19012 0.69712 0.19012 1.4788 0 0.58093-0.0634 1.0774-0.0528 0.48588-0.169 1.0774h-2.2181v-0.91894q0-1.4893-0.32743-2.2287-0.32744-0.73937-0.96119-0.73937-0.38025 0-0.66544 0.14787-0.28519 0.14788-0.47531 0.507-0.19013 0.34856-0.29575 0.9295-0.0951 0.58094-0.0951 1.4471v8.2388q0 0.845 0.0739 1.4048 0.0845 0.55981 0.26407 0.89781 0.17956 0.338 0.46475 0.48587 0.29575 0.13732 0.70768 0.13732 0.26407 0 0.507-0.11619 0.24294-0.12675 0.4225-0.38025 0.19013-0.26406 0.29575-0.65488 0.11619-0.40137 0.11619-0.94006v-1.7639h2.5033v1.6689q0 2.1759-0.99287 3.211-0.99288 1.0351-2.8519 1.0457z"/>
<path d="m-99.086 543.95h6.6861v2.1548h-3.9504v5.3974h3.0526v2.1548h-3.0526v6.1791h4.056v2.1548h-6.7917v-18.041z"/>
<path d="m-146.84 565.58h6.8973v2.1548h-4.1616v5.3974h3.2638v2.1548h-3.2638v8.3338h-2.7357v-18.041z"/>
<path d="m-134.13 583.78q-0.43306 0-0.94006-0.0739-0.507-0.0634-1.0034-0.28519-0.49644-0.22181-0.96119-0.62319-0.45418-0.41194-0.81331-1.0774-0.34856-0.66544-0.55981-1.6372-0.21125-0.98231-0.21125-2.3343v-6.3903q0-1.3626 0.21125-2.3238 0.22181-0.97175 0.58094-1.6266 0.35912-0.66544 0.81331-1.0562 0.46475-0.39081 0.96119-0.5915 0.507-0.21125 1.0034-0.27463 0.49644-0.0634 0.91894-0.0634 0.40138 0 0.88725 0.0634 0.49644 0.0528 0.98231 0.2535 0.49644 0.19013 0.96119 0.58094 0.46475 0.38025 0.82388 1.0457 0.35912 0.65487 0.57037 1.6372 0.22181 0.97175 0.22181 2.3554v6.3903q0 1.3414-0.22181 2.3132-0.22181 0.96119-0.58094 1.6372-0.35912 0.66544-0.83443 1.0774-0.46475 0.40137-0.96119 0.63375-0.48588 0.22181-0.97175 0.29575-0.48588 0.0739-0.87669 0.0739zm0-2.0597q0.40138 0 0.69713-0.13732 0.30631-0.13731 0.49643-0.47531 0.20069-0.338 0.29575-0.88725 0.10563-0.55981 0.10563-1.4048v-8.2071q0-0.86613-0.10563-1.4471-0.0951-0.58093-0.29575-0.9295-0.19012-0.35912-0.49643-0.507-0.29575-0.14787-0.69713-0.14787-0.41194 0-0.71825 0.14787-0.30631 0.14788-0.507 0.507-0.20069 0.34857-0.30631 0.9295-0.0951 0.58094-0.0951 1.4471v8.2071q0 0.845 0.0951 1.4048 0.10562 0.54925 0.30631 0.88725t0.507 0.47531q0.30631 0.13732 0.71825 0.13732z"/>
<path d="m-127.09 565.58h2.9681q0.507 0 1.1091 0.0423 0.61263 0.0422 1.2147 0.21125 0.61262 0.15843 1.1724 0.48587 0.57037 0.32744 1.0034 0.89781 0.44363 0.57038 0.70769 1.4365 0.26406 0.85557 0.26406 2.0808v0.45418q0 2.0597-0.5915 3.3589-0.5915 1.2886-1.7428 1.859l2.8941 7.2142h-2.8941l-2.3977-6.7494h-1.0246v6.7494h-2.6829v-18.041zm3.0948 9.3161q0.71825 0 1.2147-0.15844 0.49643-0.15843 0.80275-0.52812 0.30631-0.38025 0.44362-0.99288 0.13731-0.62318 0.13731-1.5316v-1.4259q0-0.69712-0.12675-1.2041-0.12675-0.507-0.43306-0.83444-0.29575-0.32744-0.79219-0.48587-0.49643-0.15844-1.2464-0.15844h-0.41194v7.3198h0.41194z"/>
<path d="m-112.38 583.79q-0.31688 0-0.73938-0.0739-0.4225-0.0634-0.87668-0.28519-0.44363-0.22181-0.87669-0.62319-0.43306-0.41193-0.78163-1.0774-0.338-0.676-0.54925-1.6478-0.21125-0.98231-0.21125-2.3343v-6.3903q0-1.3626 0.22182-2.3238 0.22181-0.97175 0.5915-1.6266 0.36968-0.66544 0.845-1.0562 0.48587-0.39081 1.0034-0.5915 0.51757-0.21125 1.0246-0.27463 0.507-0.0634 0.94006-0.0634 1.0985 0 1.8484 0.30631 0.7605 0.29575 1.2252 0.82388 0.47531 0.51756 0.676 1.2147 0.21125 0.69713 0.21125 1.4788 0 0.58094-0.0739 1.0774-0.0634 0.48587-0.17956 1.0774h-2.1864v-0.85556q0-2.9681-1.5949-2.9681-0.43306 0-0.74994 0.14787-0.31687 0.14788-0.52812 0.507-0.21125 0.34857-0.31688 0.9295-0.0951 0.58094-0.0951 1.4471v8.1754q0 0.845 0.0951 1.4048 0.10563 0.55982 0.30632 0.89782 0.21125 0.338 0.51756 0.48587 0.31687 0.13731 0.74994 0.13731 0.45418 0 0.78162-0.23237 0.32744-0.24294 0.53869-0.65488 0.21125-0.41193 0.30631-0.97175 0.10563-0.55981 0.10563-1.2147v-2.3554h-1.4048v-1.7956h4.0666v9.1366h-1.8168l-0.29575-1.7111q-0.51757 1.0034-1.1936 1.4471-0.66543 0.43307-1.5844 0.43307z"/>
<path d="m-104.96 565.58h6.6861v2.1548h-3.9504v5.3974h3.0526v2.1548h-3.0526v6.1791h4.056v2.1548h-6.7917v-18.041z"/>
</g>
</g>
</svg>
