<?xml version="1.0" encoding="UTF-8" standalone="no"?>
<svg xmlns:rdf="http://www.w3.org/1999/02/22-rdf-syntax-ns#" xmlns="http://www.w3.org/2000/svg" height="116.04" viewBox="0 0 116.04008 116.04009" width="116.04" version="1.1" xmlns:cc="http://creativecommons.org/ns#" xmlns:xlink="http://www.w3.org/1999/xlink" xmlns:dc="http://purl.org/dc/elements/1.1/">
<g transform="translate(222.07 -215.82)">
<g transform="matrix(1.5916 1.5916 -1.5904 1.5904 92.461 -174.28)" stroke="#ff3e2e" fill="none">
<circle style="color:#000000" stroke-width="6.2801" transform="matrix(.21212 0 0 .21250 -40.152 331.89)" cy="-309.64" cx="227" r="33"/>
<path d="m8 258.95v6.0366" stroke-width="1.3333"/>
</g>
<g stroke="#ff3e2e" stroke-width="3" fill="none">
<path style="color:#000000" d="m-302.62 322.5-15.882 9.1697-15.882-9.1697v-18.339l15.882-9.1697 15.882 9.1697z"/>
<path d="m-335.6 213.26c-0.2844 14.319 16.103 13.337 16.103 0 0-12.311 16.103-15.906 16.103 0"/>
<path d="m-326.21 351.86c-4.47-0.0302-9.0026 4.0259-8.783 12.31 0.27306 10.3 9.929 15.654 15.955 18.55v0.0372c0.012-0.006 0.0262-0.012 0.038-0.016 0.012 0.006 0.0262 0.012 0.038 0.016v-0.0372c6.0258-2.8964 15.682-8.2504 15.955-18.55 0.35926-13.552-12.004-15.785-15.993-7.3289-1.5506-3.287-4.3675-4.9619-7.2099-4.9812z"/>
</g>
<path fill="#f7f7f7" d="m-132.62 273.84q0 2.7952-2.4175 4.1551l-41.098 24.175q-1.1332 0.67992-2.4175 0.67992-1.2088 0-2.4175-0.60438-2.4175-1.4354-2.4175-4.2306v-48.35q0-2.7952 2.4175-4.2306 2.493-1.3598 4.835 0.0755l41.098 24.175q2.4175 1.3598 2.4175 4.1551zm9.67 0q0-11.181-5.5149-20.624-5.5149-9.4434-14.958-14.958-9.4434-5.5149-20.624-5.5149t-20.624 5.5149q-9.4434 5.5149-14.958 14.958-5.5149 9.4434-5.5149 20.624t5.5149 20.624q5.5149 9.4434 14.958 14.958 9.4434 5.5149 20.624 5.5149t20.624-5.5149q9.4434-5.5149 14.958-14.958 5.5149-9.4434 5.5149-20.624zm16.923 0q0 15.789-7.7813 29.123t-21.115 21.115q-13.334 7.7813-29.123 7.7813t-29.123-7.7813-21.115-21.115q-7.7813-13.334-7.7813-29.123t7.7813-29.123 21.115-21.115q13.334-7.7813 29.123-7.7813t29.123 7.7813 21.115 21.115q7.7813 13.334 7.7813 29.123z"/>
</g>
</svg>
