<svg width="50" height="50" version="1.1" viewBox="0 0 49.999 50.002" xmlns="http://www.w3.org/2000/svg"><g transform="matrix(.81777 0 0 .81777 -122.2 -129.97)" fill="#f5f5f5"><g fill="#f5f5f5"><path d="m166.02 169.5h2.7473v7.9131h0.0849l3.1398-7.9131h2.7367l-3.5004 8.4966 3.8929 9.6209h-2.9382l-3.3307-8.6238h-0.0849v8.6238h-2.7473v-18.117z"/><path d="m175.33 169.5h2.811l1.9942 14.352h0.11668l2.0048-14.352h2.8004l-3.2989 18.117h-3.1398l-3.2883-18.117z"/><path d="m186.81 169.5h2.9807q0.50915 0 1.1138 0.0424 0.61523 0.0424 1.2198 0.21215 0.61523 0.15911 1.1774 0.48794 0.5728 0.32883 1.0077 0.90163 0.44551 0.5728 0.7107 1.4426 0.26518 0.8592 0.26518 2.0897v0.45612q0 2.0684-0.59401 3.3732-0.59402 1.2941-1.7502 1.8669l2.9064 7.2449h-2.9064l-2.4079-6.7781h-1.0289v6.7781h-2.6943v-18.117zm3.108 9.3558q0.7213 0 1.2198-0.15911 0.49855-0.15911 0.80617-0.53037 0.30761-0.38187 0.44551-0.9971 0.13789-0.62584 0.13789-1.5381v-1.432q0-0.70009-0.12729-1.2092-0.12728-0.50915-0.4349-0.83798-0.29701-0.32883-0.79556-0.48794-0.49855-0.15912-1.2517-0.15912h-0.41369v7.351h0.41369z"/><path d="m158.95 191.23h3.161l3.352 18.117h-2.7792l-0.49855-3.2459h-3.3095l-0.47734 3.2459h-2.7898l3.3413-18.117zm2.917 12.803-1.2729-9.0269h-0.11668l-1.2835 9.0269h2.6731z"/><path d="m167.15 191.23h2.7685v13.28q0 0.8486 0.0849 1.4108 0.0849 0.56219 0.26519 0.90163 0.19093 0.32883 0.47733 0.47733 0.29701 0.1379 0.70009 0.1379 0.40309 0 0.70009-0.1379 0.30762-0.1485 0.49855-0.47733 0.20154-0.33944 0.29701-0.90163 0.10607-0.56219 0.10607-1.4108v-13.28h2.7367v12.549q0 1.3259-0.21215 2.27-0.21215 0.94406-0.56219 1.5805-0.35005 0.63645-0.80617 1.0077-0.44551 0.37126-0.93345 0.5728-0.47733 0.19093-0.95467 0.24397-0.47733 0.053-0.86981 0.053-0.39247 0-0.86981-0.053-0.46672-0.053-0.94406-0.24397-0.47733-0.20154-0.92284-0.5728t-0.79556-1.0077q-0.35004-0.63644-0.56219-1.5699-0.20154-0.94406-0.20154-2.2806v-12.549z"/><path d="m178.82 191.23h2.8534q0.64705 0 1.3365 0.0424 0.70009 0.0318 1.3578 0.22276 0.66827 0.19093 1.2517 0.59401 0.59401 0.39248 1.0395 1.1138 0.44551 0.7107 0.70009 1.8033 0.26518 1.082 0.26518 2.6519v5.2613q0 1.5699-0.26518 2.6625-0.25458 1.0926-0.70009 1.8033-0.44552 0.7107-1.0395 1.1138-0.58341 0.39248-1.2517 0.58341-0.65766 0.19094-1.3578 0.23336-0.68948 0.0318-1.3365 0.0318h-2.8534v-18.117zm3.4474 16.198q0.74252 0 1.2199-0.19093 0.48794-0.19093 0.76373-0.66827 0.2864-0.48794 0.39248-1.3153 0.10607-0.83798 0.10607-2.1109v-5.6219q0-1.2729-0.10607-2.1003-0.10608-0.83798-0.39248-1.3153-0.27579-0.48794-0.76373-0.67887-0.47734-0.19094-1.2199-0.19094h-0.70009v14.193h0.70009z"/><path d="m190.07 191.23h2.7473v18.117h-2.7473v-18.117z"/><path d="m199.93 209.51q-0.4349 0-0.94406-0.0742-0.50915-0.0636-1.0077-0.2864-0.49855-0.22276-0.96528-0.62584-0.45612-0.41369-0.81677-1.082-0.35004-0.66827-0.56219-1.6442-0.21215-0.98649-0.21215-2.3442v-6.4175q0-1.3684 0.21215-2.3336 0.22275-0.97589 0.58341-1.6336 0.36065-0.66826 0.81677-1.0607 0.46672-0.39247 0.96527-0.59401 0.50916-0.21215 1.0077-0.2758 0.49855-0.0636 0.92284-0.0636 0.40309 0 0.89103 0.0636 0.49855 0.053 0.98649 0.25458 0.49855 0.19093 0.96527 0.58341 0.46673 0.38187 0.82738 1.0501 0.36065 0.65766 0.5728 1.6442 0.22276 0.97589 0.22276 2.3655v6.4175q0 1.3471-0.22276 2.323-0.22275 0.96527-0.58341 1.6442-0.36065 0.66826-0.83798 1.082-0.46673 0.40309-0.96528 0.63645-0.48794 0.22275-0.97588 0.29701-0.48794 0.0742-0.88042 0.0742zm0-2.0684q0.40309 0 0.70009-0.1379 0.30762-0.13789 0.49855-0.47733 0.20154-0.33944 0.29701-0.89102 0.10607-0.5622 0.10607-1.4108v-8.242q0-0.86981-0.10607-1.4532-0.0955-0.58341-0.29701-0.93346-0.19093-0.36065-0.49855-0.50915-0.297-0.14851-0.70009-0.14851-0.41369 0-0.7213 0.14851-0.30762 0.1485-0.50916 0.50915-0.20154 0.35005-0.30761 0.93346-0.0955 0.5834-0.0955 1.4532v8.242q0 0.84859 0.0955 1.4108 0.10607 0.55158 0.30761 0.89102t0.50916 0.47733q0.30761 0.1379 0.7213 0.1379z"/></g></g></svg>
