<svg width="14.353mm" height="14.111mm" version="1.1" viewBox="0 0 50.858 50" xmlns="http://www.w3.org/2000/svg"><g transform="translate(618.28 -465.93)" fill="#f5f5f5"><path d="m-586.38 515.93c-0.0953-0.20663-0.15893-0.42913-0.15893-0.65162 0-0.84235 0.0317-3.6395 0.0317-7.1202 0-2.4158-0.81055-4.0051-1.7324-4.7997 5.6739-0.65162 11.618-2.8449 11.618-12.826 0-2.829-0.98538-5.1494-2.6224-6.9612 0.27019-0.65163 1.1284-3.2899-0.25428-6.8659 0 0-2.1297-0.69929-6.9771 2.6542-2.0343-0.57215-4.2117-0.85823-6.3732-0.87413-2.1615 0.016-4.3388 0.30198-6.3573 0.87413-4.8633-3.3534-6.993-2.6542-6.993-2.6542-1.3827 3.576-0.52448 6.2142-0.25429 6.8659-1.6211 1.8118-2.6224 4.1322-2.6224 6.9612 0 9.965 5.944 12.19 11.586 12.842-0.73109 0.6516-1.3827 1.7959-1.6211 3.4647-1.4463 0.66751-5.1335 1.8118-7.3903-2.1456 0 0-1.3509-2.4952-3.8938-2.6859 0 0-2.4952-0.0316-0.17482 1.5893 0 0 1.6688 0.79466 2.8131 3.7985 0 0 1.494 5.0381 8.5664 3.4806l0.0318 4.4024c0 0.22249-0.0636 0.44499-0.15893 0.65162-10.903-2.8767-18.961-12.762-18.961-24.571 0-14.05 11.38-25.429 25.429-25.429 14.05 0 25.429 11.38 25.429 25.429 0 11.809-8.0578 21.694-18.961 24.571z" fill="#f5f5f5" fill-rule="evenodd"/></g></svg>
